solid Created by Gmsh
facet normal -0.382679 -0.923869 -0.0046707
  outer loop
    vertex -1.4026 -1.42574 1.32735
    vertex -1.41421 -1.41421 0
    vertex 0 -2 0
  endloop
endfacet
facet normal -0.378901 -0.925437 -0
  outer loop
    vertex 0 -2 2
    vertex -1.4026 -1.42574 1.32735
    vertex 0 -2 0
  endloop
endfacet
facet normal -0.923095 -0.384572 0
  outer loop
    vertex -2 0 6
    vertex -1.40842 -1.41999 7.02633
    vertex -2 0 8
  endloop
endfacet
facet normal -0.380793 -0.92466 -0
  outer loop
    vertex 0 -2 8
    vertex -1.40842 -1.41999 7.02633
    vertex 0 -2 6
  endloop
endfacet
facet normal -0.381896 -0.924203 0.0018677
  outer loop
    vertex 0 -2 8
    vertex -1.41272 -1.41571 8.26486
    vertex -1.40842 -1.41999 7.02633
  endloop
endfacet
facet normal -0.923551 -0.383471 -0.00188329
  outer loop
    vertex -1.41272 -1.41571 8.26486
    vertex -2 0 8
    vertex -1.40842 -1.41999 7.02633
  endloop
endfacet
facet normal -0.922832 -0.385201 0
  outer loop
    vertex -1.40648 -1.42191 3.11793
    vertex -2 0 4
    vertex -2 0 2
  endloop
endfacet
facet normal -0.380163 -0.92492 0
  outer loop
    vertex -1.40648 -1.42191 3.11793
    vertex 0 -2 2
    vertex 0 -2 4
  endloop
endfacet
facet normal -0.92388 -0.382683 0
  outer loop
    vertex -1.41421 -1.41421 13.9707
    vertex -2 0 14
    vertex -2 0 12
  endloop
endfacet
facet normal -0.382683 -0.92388 0
  outer loop
    vertex -1.41421 -1.41421 13.9707
    vertex 0 -2 12
    vertex 0 -2 14
  endloop
endfacet
facet normal -0.382683 -0.92388 0
  outer loop
    vertex -1.41421 -1.41421 12
    vertex 0 -2 12
    vertex -1.41421 -1.41421 13.9707
  endloop
endfacet
facet normal -0.92388 -0.382683 0
  outer loop
    vertex -2 0 12
    vertex -1.41421 -1.41421 12
    vertex -1.41421 -1.41421 13.9707
  endloop
endfacet
facet normal -0.92388 -0.382683 0
  outer loop
    vertex -2 0 16
    vertex -1.41421 -1.41421 17.0926
    vertex -2 0 18
  endloop
endfacet
facet normal -0.92388 -0.382683 0
  outer loop
    vertex -2 0 16
    vertex -1.41421 -1.41421 15.7658
    vertex -1.41421 -1.41421 17.0926
  endloop
endfacet
facet normal -0.382683 -0.92388 -0
  outer loop
    vertex 0 -2 18
    vertex -1.41421 -1.41421 17.0926
    vertex 0 -2 16
  endloop
endfacet
facet normal -0.382683 -0.92388 0
  outer loop
    vertex -1.41421 -1.41421 15.7658
    vertex 0 -2 16
    vertex -1.41421 -1.41421 17.0926
  endloop
endfacet
facet normal -0.92715 -0.374691 0
  outer loop
    vertex -2 0 46
    vertex -1.43843 -1.38958 46.9545
    vertex -2 0 48
  endloop
endfacet
facet normal -0.390647 -0.92054 -0
  outer loop
    vertex 0 -2 48
    vertex -1.43843 -1.38958 46.9545
    vertex 0 -2 46
  endloop
endfacet
facet normal -0.92388 -0.382683 0
  outer loop
    vertex -1.41421 -1.41421 35.0917
    vertex -2 0 36
    vertex -2 0 34
  endloop
endfacet
facet normal -0.382683 -0.92388 0
  outer loop
    vertex -1.41421 -1.41421 35.0917
    vertex 0 -2 34
    vertex 0 -2 36
  endloop
endfacet
facet normal -0.382683 -0.92388 0
  outer loop
    vertex -1.41421 -1.41421 33.8894
    vertex 0 -2 34
    vertex -1.41421 -1.41421 35.0917
  endloop
endfacet
facet normal -0.92388 -0.382683 0
  outer loop
    vertex -2 0 34
    vertex -1.41421 -1.41421 33.8894
    vertex -1.41421 -1.41421 35.0917
  endloop
endfacet
facet normal -0.92388 -0.382683 0
  outer loop
    vertex -2 0 36
    vertex -1.41421 -1.41421 37.3495
    vertex -2 0 38
  endloop
endfacet
facet normal -0.92388 -0.382683 0
  outer loop
    vertex -2 0 36
    vertex -1.41421 -1.41421 35.0917
    vertex -1.41421 -1.41421 37.3495
  endloop
endfacet
facet normal -0.382683 -0.92388 -0
  outer loop
    vertex 0 -2 38
    vertex -1.41421 -1.41421 37.3495
    vertex 0 -2 36
  endloop
endfacet
facet normal -0.382683 -0.92388 0
  outer loop
    vertex -1.41421 -1.41421 35.0917
    vertex 0 -2 36
    vertex -1.41421 -1.41421 37.3495
  endloop
endfacet
facet normal -0.92388 -0.382683 0
  outer loop
    vertex -2 0 38
    vertex -1.41421 -1.41421 40.0972
    vertex -2 0 40
  endloop
endfacet
facet normal -0.92388 -0.382683 0
  outer loop
    vertex -2 0 38
    vertex -1.41421 -1.41421 37.3495
    vertex -1.41421 -1.41421 40.0972
  endloop
endfacet
facet normal -0.382683 -0.92388 -0
  outer loop
    vertex 0 -2 40
    vertex -1.41421 -1.41421 40.0972
    vertex 0 -2 38
  endloop
endfacet
facet normal -0.382683 -0.92388 0
  outer loop
    vertex -1.41421 -1.41421 37.3495
    vertex 0 -2 38
    vertex -1.41421 -1.41421 40.0972
  endloop
endfacet
facet normal -0.92388 -0.382683 0
  outer loop
    vertex -2 0 40
    vertex -1.41421 -1.41421 40.0972
    vertex -2 0 42
  endloop
endfacet
facet normal -0.382683 -0.92388 -0
  outer loop
    vertex 0 -2 42
    vertex -1.41421 -1.41421 40.0972
    vertex 0 -2 40
  endloop
endfacet
facet normal -0.382683 -0.92388 0
  outer loop
    vertex 0 -2 42
    vertex -1.41421 -1.41421 42.7778
    vertex -1.41421 -1.41421 40.0972
  endloop
endfacet
facet normal -0.92388 -0.382683 -0
  outer loop
    vertex -1.41421 -1.41421 42.7778
    vertex -2 0 42
    vertex -1.41421 -1.41421 40.0972
  endloop
endfacet
facet normal -0.92388 -0.382683 0
  outer loop
    vertex -2 0 24
    vertex -1.41421 -1.41421 26.07
    vertex -2 0 26
  endloop
endfacet
facet normal -0.92388 -0.382683 0
  outer loop
    vertex -2 0 24
    vertex -1.41421 -1.41421 23.8056
    vertex -1.41421 -1.41421 26.07
  endloop
endfacet
facet normal -0.382683 -0.92388 -0
  outer loop
    vertex 0 -2 26
    vertex -1.41421 -1.41421 26.07
    vertex 0 -2 24
  endloop
endfacet
facet normal -0.382683 -0.92388 0
  outer loop
    vertex -1.41421 -1.41421 23.8056
    vertex 0 -2 24
    vertex -1.41421 -1.41421 26.07
  endloop
endfacet
facet normal -0.923854 -0.382744 0
  outer loop
    vertex -2 0 10
    vertex -1.41403 -1.4144 10.0331
    vertex -2 0 12
  endloop
endfacet
facet normal -0.382622 -0.923905 -0
  outer loop
    vertex 0 -2 12
    vertex -1.41403 -1.4144 10.0331
    vertex 0 -2 10
  endloop
endfacet
facet normal -0.382683 -0.92388 5.13389e-05
  outer loop
    vertex 0 -2 12
    vertex -1.41421 -1.41421 12
    vertex -1.41403 -1.4144 10.0331
  endloop
endfacet
facet normal -0.92388 -0.382683 -5.13553e-05
  outer loop
    vertex -1.41421 -1.41421 12
    vertex -2 0 12
    vertex -1.41403 -1.4144 10.0331
  endloop
endfacet
facet normal -0.92388 -0.382683 0
  outer loop
    vertex -1.41421 -1.41421 22
    vertex -2 0 22
    vertex -2 0 20
  endloop
endfacet
facet normal -0.382683 -0.92388 0
  outer loop
    vertex -1.41421 -1.41421 22
    vertex 0 -2 20
    vertex 0 -2 22
  endloop
endfacet
facet normal -0.382683 -0.92388 0
  outer loop
    vertex -1.41421 -1.41421 19.3333
    vertex 0 -2 20
    vertex -1.41421 -1.41421 22
  endloop
endfacet
facet normal -0.92388 -0.382683 0
  outer loop
    vertex -2 0 20
    vertex -1.41421 -1.41421 19.3333
    vertex -1.41421 -1.41421 22
  endloop
endfacet
facet normal -0.92388 -0.382683 0
  outer loop
    vertex -1.41421 -1.41421 19.3333
    vertex -2 0 20
    vertex -2 0 18
  endloop
endfacet
facet normal -0.382683 -0.92388 0
  outer loop
    vertex -1.41421 -1.41421 19.3333
    vertex 0 -2 18
    vertex 0 -2 20
  endloop
endfacet
facet normal -0.382683 -0.92388 0
  outer loop
    vertex -1.41421 -1.41421 17.0926
    vertex 0 -2 18
    vertex -1.41421 -1.41421 19.3333
  endloop
endfacet
facet normal -0.92388 -0.382683 0
  outer loop
    vertex -2 0 18
    vertex -1.41421 -1.41421 17.0926
    vertex -1.41421 -1.41421 19.3333
  endloop
endfacet
facet normal -0.92388 -0.382683 0
  outer loop
    vertex -1.41421 -1.41421 42.7778
    vertex -2 0 44
    vertex -2 0 42
  endloop
endfacet
facet normal -0.925015 -0.379913 -0.00375025
  outer loop
    vertex -1.42956 -1.3987 44.9907
    vertex -2 0 44
    vertex -1.41421 -1.41421 42.7778
  endloop
endfacet
facet normal -0.382683 -0.92388 0
  outer loop
    vertex -1.41421 -1.41421 42.7778
    vertex 0 -2 42
    vertex 0 -2 44
  endloop
endfacet
facet normal -0.385478 -0.922709 0.00379473
  outer loop
    vertex 0 -2 44
    vertex -1.42956 -1.3987 44.9907
    vertex -1.41421 -1.41421 42.7778
  endloop
endfacet
facet normal -0.925953 -0.377639 0
  outer loop
    vertex -2 0 44
    vertex -1.42956 -1.3987 44.9907
    vertex -2 0 46
  endloop
endfacet
facet normal -0.387717 -0.921779 -0
  outer loop
    vertex 0 -2 46
    vertex -1.42956 -1.3987 44.9907
    vertex 0 -2 44
  endloop
endfacet
facet normal -0.92388 -0.382683 0
  outer loop
    vertex -2 0 22
    vertex -1.41421 -1.41421 23.8056
    vertex -2 0 24
  endloop
endfacet
facet normal -0.92388 -0.382683 0
  outer loop
    vertex -2 0 22
    vertex -1.41421 -1.41421 22
    vertex -1.41421 -1.41421 23.8056
  endloop
endfacet
facet normal -0.382683 -0.92388 0
  outer loop
    vertex -1.41421 -1.41421 23.8056
    vertex 0 -2 22
    vertex 0 -2 24
  endloop
endfacet
facet normal -0.382683 -0.92388 0
  outer loop
    vertex -1.41421 -1.41421 22
    vertex 0 -2 22
    vertex -1.41421 -1.41421 23.8056
  endloop
endfacet
facet normal -0.922503 -0.385988 -0.00117477
  outer loop
    vertex -2 0 2
    vertex -1.4026 -1.42574 1.32735
    vertex -1.40648 -1.42191 3.11793
  endloop
endfacet
facet normal -0.379376 -0.925242 0.00115654
  outer loop
    vertex -1.4026 -1.42574 1.32735
    vertex 0 -2 2
    vertex -1.40648 -1.42191 3.11793
  endloop
endfacet
facet normal -0.923869 -0.382679 0.00476387
  outer loop
    vertex -2 0 0
    vertex -1.41421 -1.41421 0
    vertex -1.4026 -1.42574 1.32735
  endloop
endfacet
facet normal -0.922306 -0.386459 -0
  outer loop
    vertex -2 0 2
    vertex -2 0 0
    vertex -1.4026 -1.42574 1.32735
  endloop
endfacet
facet normal -0.923878 -0.382683 0.0018697
  outer loop
    vertex -1.41828 -1.41014 48.8257
    vertex -1.41421 -1.41421 50
    vertex -2 0 50
  endloop
endfacet
facet normal -0.924429 -0.381353 0
  outer loop
    vertex -2 0 48
    vertex -1.41828 -1.41014 48.8257
    vertex -2 0 50
  endloop
endfacet
facet normal -0.381386 -0.924415 -0.00095223
  outer loop
    vertex -1.40842 -1.41999 7.02633
    vertex -1.41196 -1.41646 5.02404
    vertex 0 -2 6
  endloop
endfacet
facet normal -0.92334 -0.383981 0.000958856
  outer loop
    vertex -1.41196 -1.41646 5.02404
    vertex -1.40842 -1.41999 7.02633
    vertex -2 0 6
  endloop
endfacet
facet normal -0.923575 -0.383418 0
  outer loop
    vertex -2 0 4
    vertex -1.41196 -1.41646 5.02404
    vertex -2 0 6
  endloop
endfacet
facet normal -0.923174 -0.384378 -0.00155758
  outer loop
    vertex -2 0 4
    vertex -1.40648 -1.42191 3.11793
    vertex -1.41196 -1.41646 5.02404
  endloop
endfacet
facet normal -0.381948 -0.924184 0
  outer loop
    vertex -1.41196 -1.41646 5.02404
    vertex 0 -2 4
    vertex 0 -2 6
  endloop
endfacet
facet normal -0.380991 -0.924578 0.00154492
  outer loop
    vertex -1.40648 -1.42191 3.11793
    vertex 0 -2 4
    vertex -1.41196 -1.41646 5.02404
  endloop
endfacet
facet normal -0.386964 -0.922075 -0.00596375
  outer loop
    vertex -1.41828 -1.41014 48.8257
    vertex -1.43843 -1.38958 46.9545
    vertex 0 -2 48
  endloop
endfacet
facet normal -0.925608 -0.378438 0.00580855
  outer loop
    vertex -1.43843 -1.38958 46.9545
    vertex -1.41828 -1.41014 48.8257
    vertex -2 0 48
  endloop
endfacet
facet normal -0.382683 -0.923878 -0.00188274
  outer loop
    vertex -1.41421 -1.41421 50
    vertex -1.41828 -1.41014 48.8257
    vertex 0 -2 50
  endloop
endfacet
facet normal -0.384013 -0.923328 0
  outer loop
    vertex -1.41828 -1.41014 48.8257
    vertex 0 -2 48
    vertex 0 -2 50
  endloop
endfacet
facet normal -0.926564 -0.376129 -0.00243803
  outer loop
    vertex -1.43843 -1.38958 46.9545
    vertex -2 0 46
    vertex -1.42956 -1.3987 44.9907
  endloop
endfacet
facet normal -0.389228 -0.921138 0.00252186
  outer loop
    vertex 0 -2 46
    vertex -1.43843 -1.38958 46.9545
    vertex -1.42956 -1.3987 44.9907
  endloop
endfacet
facet normal -0.92388 -0.382683 0
  outer loop
    vertex -1.41421 -1.41421 30.87
    vertex -2 0 32
    vertex -2 0 30
  endloop
endfacet
facet normal -0.92388 -0.382683 -0
  outer loop
    vertex -1.41421 -1.41421 32.466
    vertex -2 0 32
    vertex -1.41421 -1.41421 30.87
  endloop
endfacet
facet normal -0.382683 -0.92388 -0
  outer loop
    vertex 0 -2 32
    vertex -1.41421 -1.41421 30.87
    vertex 0 -2 30
  endloop
endfacet
facet normal -0.382683 -0.92388 0
  outer loop
    vertex 0 -2 32
    vertex -1.41421 -1.41421 32.466
    vertex -1.41421 -1.41421 30.87
  endloop
endfacet
facet normal -0.92388 -0.382683 0
  outer loop
    vertex -1.41421 -1.41421 13.9707
    vertex -2 0 16
    vertex -2 0 14
  endloop
endfacet
facet normal -0.92388 -0.382683 -0
  outer loop
    vertex -1.41421 -1.41421 15.7658
    vertex -2 0 16
    vertex -1.41421 -1.41421 13.9707
  endloop
endfacet
facet normal -0.382683 -0.92388 -0
  outer loop
    vertex 0 -2 16
    vertex -1.41421 -1.41421 13.9707
    vertex 0 -2 14
  endloop
endfacet
facet normal -0.382683 -0.92388 0
  outer loop
    vertex 0 -2 16
    vertex -1.41421 -1.41421 15.7658
    vertex -1.41421 -1.41421 13.9707
  endloop
endfacet
facet normal -0.92388 -0.382683 0
  outer loop
    vertex -1.41421 -1.41421 28.7543
    vertex -2 0 30
    vertex -2 0 28
  endloop
endfacet
facet normal -0.92388 -0.382683 -0
  outer loop
    vertex -1.41421 -1.41421 30.87
    vertex -2 0 30
    vertex -1.41421 -1.41421 28.7543
  endloop
endfacet
facet normal -0.382683 -0.92388 -0
  outer loop
    vertex 0 -2 30
    vertex -1.41421 -1.41421 28.7543
    vertex 0 -2 28
  endloop
endfacet
facet normal -0.382683 -0.92388 0
  outer loop
    vertex 0 -2 30
    vertex -1.41421 -1.41421 30.87
    vertex -1.41421 -1.41421 28.7543
  endloop
endfacet
facet normal -0.923854 -0.382744 0
  outer loop
    vertex -2 0 8
    vertex -1.41403 -1.4144 10.0331
    vertex -2 0 10
  endloop
endfacet
facet normal -0.923651 -0.383235 -0.000399805
  outer loop
    vertex -2 0 8
    vertex -1.41272 -1.41571 8.26486
    vertex -1.41403 -1.4144 10.0331
  endloop
endfacet
facet normal -0.382622 -0.923905 0
  outer loop
    vertex -1.41403 -1.4144 10.0331
    vertex 0 -2 8
    vertex 0 -2 10
  endloop
endfacet
facet normal -0.382132 -0.924108 0.000399811
  outer loop
    vertex -1.41272 -1.41571 8.26486
    vertex 0 -2 8
    vertex -1.41403 -1.4144 10.0331
  endloop
endfacet
facet normal -0.92388 -0.382683 0
  outer loop
    vertex -1.41421 -1.41421 32.466
    vertex -2 0 34
    vertex -2 0 32
  endloop
endfacet
facet normal -0.92388 -0.382683 -0
  outer loop
    vertex -1.41421 -1.41421 33.8894
    vertex -2 0 34
    vertex -1.41421 -1.41421 32.466
  endloop
endfacet
facet normal -0.382683 -0.92388 -0
  outer loop
    vertex 0 -2 34
    vertex -1.41421 -1.41421 32.466
    vertex 0 -2 32
  endloop
endfacet
facet normal -0.382683 -0.92388 0
  outer loop
    vertex 0 -2 34
    vertex -1.41421 -1.41421 33.8894
    vertex -1.41421 -1.41421 32.466
  endloop
endfacet
facet normal -0.92388 -0.382683 0
  outer loop
    vertex -1.41421 -1.41421 26.07
    vertex -2 0 28
    vertex -2 0 26
  endloop
endfacet
facet normal -0.92388 -0.382683 -0
  outer loop
    vertex -1.41421 -1.41421 28.7543
    vertex -2 0 28
    vertex -1.41421 -1.41421 26.07
  endloop
endfacet
facet normal -0.382683 -0.92388 -0
  outer loop
    vertex 0 -2 28
    vertex -1.41421 -1.41421 26.07
    vertex 0 -2 26
  endloop
endfacet
facet normal -0.382683 -0.92388 0
  outer loop
    vertex 0 -2 28
    vertex -1.41421 -1.41421 28.7543
    vertex -1.41421 -1.41421 26.07
  endloop
endfacet
facet normal -0.923869 0.382679 -0.0046707
  outer loop
    vertex -1.42574 1.4026 1.32735
    vertex -1.41421 1.41421 0
    vertex -2 0 0
  endloop
endfacet
facet normal -0.925437 0.378901 0
  outer loop
    vertex -2 0 2
    vertex -1.42574 1.4026 1.32735
    vertex -2 0 0
  endloop
endfacet
facet normal -0.92466 0.380793 0
  outer loop
    vertex -2 0 8
    vertex -1.41999 1.40842 7.02633
    vertex -2 0 6
  endloop
endfacet
facet normal -0.924203 0.381896 0.0018677
  outer loop
    vertex -2 0 8
    vertex -1.41571 1.41272 8.26486
    vertex -1.41999 1.40842 7.02633
  endloop
endfacet
facet normal -0.384572 0.923095 0
  outer loop
    vertex 0 2 6
    vertex -1.41999 1.40842 7.02633
    vertex 0 2 8
  endloop
endfacet
facet normal -0.383471 0.923551 -0.00188329
  outer loop
    vertex -1.41571 1.41272 8.26486
    vertex 0 2 8
    vertex -1.41999 1.40842 7.02633
  endloop
endfacet
facet normal -0.92492 0.380163 0
  outer loop
    vertex -1.42191 1.40648 3.11793
    vertex -2 0 2
    vertex -2 0 4
  endloop
endfacet
facet normal -0.385201 0.922832 0
  outer loop
    vertex -1.42191 1.40648 3.11793
    vertex 0 2 4
    vertex 0 2 2
  endloop
endfacet
facet normal -0.92388 0.382683 0
  outer loop
    vertex -1.41421 1.41421 13.9707
    vertex -2 0 12
    vertex -2 0 14
  endloop
endfacet
facet normal -0.92388 0.382683 0
  outer loop
    vertex -1.41421 1.41421 12
    vertex -2 0 12
    vertex -1.41421 1.41421 13.9707
  endloop
endfacet
facet normal -0.382683 0.92388 0
  outer loop
    vertex -1.41421 1.41421 13.9707
    vertex 0 2 14
    vertex 0 2 12
  endloop
endfacet
facet normal -0.382683 0.92388 0
  outer loop
    vertex 0 2 12
    vertex -1.41421 1.41421 12
    vertex -1.41421 1.41421 13.9707
  endloop
endfacet
facet normal -0.92388 0.382683 0
  outer loop
    vertex -2 0 18
    vertex -1.41421 1.41421 17.0926
    vertex -2 0 16
  endloop
endfacet
facet normal -0.382683 0.92388 0
  outer loop
    vertex 0 2 16
    vertex -1.41421 1.41421 17.0926
    vertex 0 2 18
  endloop
endfacet
facet normal -0.382683 0.92388 0
  outer loop
    vertex 0 2 16
    vertex -1.41421 1.41421 15.7658
    vertex -1.41421 1.41421 17.0926
  endloop
endfacet
facet normal -0.92388 0.382683 0
  outer loop
    vertex -1.41421 1.41421 15.7658
    vertex -2 0 16
    vertex -1.41421 1.41421 17.0926
  endloop
endfacet
facet normal -0.92054 0.390647 0
  outer loop
    vertex -1.38958 1.43843 46.9545
    vertex -2 0 46
    vertex -2 0 48
  endloop
endfacet
facet normal -0.374691 0.92715 0
  outer loop
    vertex -1.38958 1.43843 46.9545
    vertex 0 2 48
    vertex 0 2 46
  endloop
endfacet
facet normal -0.92388 0.382683 0
  outer loop
    vertex -2 0 36
    vertex -1.41421 1.41421 35.0917
    vertex -2 0 34
  endloop
endfacet
facet normal -0.382683 0.92388 0
  outer loop
    vertex 0 2 34
    vertex -1.41421 1.41421 35.0917
    vertex 0 2 36
  endloop
endfacet
facet normal -0.382683 0.92388 0
  outer loop
    vertex 0 2 34
    vertex -1.41421 1.41421 33.8894
    vertex -1.41421 1.41421 35.0917
  endloop
endfacet
facet normal -0.92388 0.382683 0
  outer loop
    vertex -1.41421 1.41421 33.8894
    vertex -2 0 34
    vertex -1.41421 1.41421 35.0917
  endloop
endfacet
facet normal -0.92388 0.382683 0
  outer loop
    vertex -1.41421 1.41421 37.3495
    vertex -2 0 36
    vertex -2 0 38
  endloop
endfacet
facet normal -0.92388 0.382683 0
  outer loop
    vertex -1.41421 1.41421 35.0917
    vertex -2 0 36
    vertex -1.41421 1.41421 37.3495
  endloop
endfacet
facet normal -0.382683 0.92388 0
  outer loop
    vertex -1.41421 1.41421 37.3495
    vertex 0 2 38
    vertex 0 2 36
  endloop
endfacet
facet normal -0.382683 0.92388 0
  outer loop
    vertex 0 2 36
    vertex -1.41421 1.41421 35.0917
    vertex -1.41421 1.41421 37.3495
  endloop
endfacet
facet normal -0.92388 0.382683 0
  outer loop
    vertex -1.41421 1.41421 40.0972
    vertex -2 0 38
    vertex -2 0 40
  endloop
endfacet
facet normal -0.92388 0.382683 0
  outer loop
    vertex -1.41421 1.41421 37.3495
    vertex -2 0 38
    vertex -1.41421 1.41421 40.0972
  endloop
endfacet
facet normal -0.382683 0.92388 0
  outer loop
    vertex -1.41421 1.41421 40.0972
    vertex 0 2 40
    vertex 0 2 38
  endloop
endfacet
facet normal -0.382683 0.92388 0
  outer loop
    vertex 0 2 38
    vertex -1.41421 1.41421 37.3495
    vertex -1.41421 1.41421 40.0972
  endloop
endfacet
facet normal -0.92388 0.382683 0
  outer loop
    vertex -1.41421 1.41421 40.0972
    vertex -2 0 40
    vertex -2 0 42
  endloop
endfacet
facet normal -0.382683 0.92388 0
  outer loop
    vertex -1.41421 1.41421 40.0972
    vertex 0 2 42
    vertex 0 2 40
  endloop
endfacet
facet normal -0.382683 0.92388 0
  outer loop
    vertex -1.41421 1.41421 42.7778
    vertex 0 2 42
    vertex -1.41421 1.41421 40.0972
  endloop
endfacet
facet normal -0.92388 0.382683 0
  outer loop
    vertex -2 0 42
    vertex -1.41421 1.41421 42.7778
    vertex -1.41421 1.41421 40.0972
  endloop
endfacet
facet normal -0.92388 0.382683 0
  outer loop
    vertex -2 0 22
    vertex -1.41421 1.41421 21.1247
    vertex -2 0 20
  endloop
endfacet
facet normal -0.382683 0.92388 0
  outer loop
    vertex 0 2 20
    vertex -1.41421 1.41421 21.1247
    vertex 0 2 22
  endloop
endfacet
facet normal -0.382683 0.92388 0
  outer loop
    vertex 0 2 20
    vertex -1.41421 1.41421 19.3333
    vertex -1.41421 1.41421 21.1247
  endloop
endfacet
facet normal -0.92388 0.382683 0
  outer loop
    vertex -1.41421 1.41421 19.3333
    vertex -2 0 20
    vertex -1.41421 1.41421 21.1247
  endloop
endfacet
facet normal -0.92388 0.382683 0
  outer loop
    vertex -1.41421 1.41421 25.0653
    vertex -2 0 24
    vertex -2 0 26
  endloop
endfacet
facet normal -0.382683 0.92388 0
  outer loop
    vertex -1.41421 1.41421 25.0653
    vertex 0 2 26
    vertex 0 2 24
  endloop
endfacet
facet normal -0.923905 0.382622 0
  outer loop
    vertex -1.4144 1.41403 10.0331
    vertex -2 0 10
    vertex -2 0 12
  endloop
endfacet
facet normal -0.382744 0.923854 0
  outer loop
    vertex -1.4144 1.41403 10.0331
    vertex 0 2 12
    vertex 0 2 10
  endloop
endfacet
facet normal -0.382683 0.92388 -5.13553e-05
  outer loop
    vertex -1.41421 1.41421 12
    vertex 0 2 12
    vertex -1.4144 1.41403 10.0331
  endloop
endfacet
facet normal -0.92388 0.382683 5.13389e-05
  outer loop
    vertex -2 0 12
    vertex -1.41421 1.41421 12
    vertex -1.4144 1.41403 10.0331
  endloop
endfacet
facet normal -0.92388 0.382683 0
  outer loop
    vertex -1.41421 1.41421 26.9198
    vertex -2 0 26
    vertex -2 0 28
  endloop
endfacet
facet normal -0.382683 0.92388 0
  outer loop
    vertex -1.41421 1.41421 26.9198
    vertex 0 2 28
    vertex 0 2 26
  endloop
endfacet
facet normal -0.92388 0.382683 0
  outer loop
    vertex -1.41421 1.41421 19.3333
    vertex -2 0 18
    vertex -2 0 20
  endloop
endfacet
facet normal -0.92388 0.382683 0
  outer loop
    vertex -1.41421 1.41421 17.0926
    vertex -2 0 18
    vertex -1.41421 1.41421 19.3333
  endloop
endfacet
facet normal -0.382683 0.92388 0
  outer loop
    vertex -1.41421 1.41421 19.3333
    vertex 0 2 20
    vertex 0 2 18
  endloop
endfacet
facet normal -0.382683 0.92388 0
  outer loop
    vertex 0 2 18
    vertex -1.41421 1.41421 17.0926
    vertex -1.41421 1.41421 19.3333
  endloop
endfacet
facet normal -0.92388 0.382683 0
  outer loop
    vertex -2 0 44
    vertex -1.41421 1.41421 42.7778
    vertex -2 0 42
  endloop
endfacet
facet normal -0.922709 0.385478 0.00379473
  outer loop
    vertex -2 0 44
    vertex -1.3987 1.42956 44.9907
    vertex -1.41421 1.41421 42.7778
  endloop
endfacet
facet normal -0.382683 0.92388 0
  outer loop
    vertex 0 2 42
    vertex -1.41421 1.41421 42.7778
    vertex 0 2 44
  endloop
endfacet
facet normal -0.379913 0.925015 -0.00375025
  outer loop
    vertex -1.3987 1.42956 44.9907
    vertex 0 2 44
    vertex -1.41421 1.41421 42.7778
  endloop
endfacet
facet normal -0.921779 0.387717 0
  outer loop
    vertex -1.3987 1.42956 44.9907
    vertex -2 0 44
    vertex -2 0 46
  endloop
endfacet
facet normal -0.377639 0.925953 0
  outer loop
    vertex -1.3987 1.42956 44.9907
    vertex 0 2 46
    vertex 0 2 44
  endloop
endfacet
facet normal -0.925242 0.379376 0.00115654
  outer loop
    vertex -1.42574 1.4026 1.32735
    vertex -2 0 2
    vertex -1.42191 1.40648 3.11793
  endloop
endfacet
facet normal -0.385988 0.922503 -0.00117477
  outer loop
    vertex 0 2 2
    vertex -1.42574 1.4026 1.32735
    vertex -1.42191 1.40648 3.11793
  endloop
endfacet
facet normal -0.92388 0.382683 0
  outer loop
    vertex -1.41421 1.41421 25.0653
    vertex -2 0 26
    vertex -1.41421 1.41421 26.9198
  endloop
endfacet
facet normal -0.382683 0.92388 0
  outer loop
    vertex 0 2 26
    vertex -1.41421 1.41421 25.0653
    vertex -1.41421 1.41421 26.9198
  endloop
endfacet
facet normal -0.382679 0.923869 0.00476387
  outer loop
    vertex 0 2 0
    vertex -1.41421 1.41421 0
    vertex -1.42574 1.4026 1.32735
  endloop
endfacet
facet normal -0.386459 0.922306 0
  outer loop
    vertex 0 2 2
    vertex 0 2 0
    vertex -1.42574 1.4026 1.32735
  endloop
endfacet
facet normal -0.382683 0.923878 0.0018697
  outer loop
    vertex -1.41014 1.41828 48.8257
    vertex -1.41421 1.41421 50
    vertex 0 2 50
  endloop
endfacet
facet normal -0.381353 0.924429 0
  outer loop
    vertex 0 2 48
    vertex -1.41014 1.41828 48.8257
    vertex 0 2 50
  endloop
endfacet
facet normal -0.924415 0.381386 -0.00095223
  outer loop
    vertex -1.41999 1.40842 7.02633
    vertex -1.41646 1.41196 5.02404
    vertex -2 0 6
  endloop
endfacet
facet normal -0.383981 0.92334 0.000958856
  outer loop
    vertex -1.41646 1.41196 5.02404
    vertex -1.41999 1.40842 7.02633
    vertex 0 2 6
  endloop
endfacet
facet normal -0.382683 0.92388 0
  outer loop
    vertex -1.41421 1.41421 23.0317
    vertex -1.41421 1.41421 25.0653
    vertex 0 2 24
  endloop
endfacet
facet normal -0.92388 0.382683 0
  outer loop
    vertex -1.41421 1.41421 25.0653
    vertex -1.41421 1.41421 23.0317
    vertex -2 0 24
  endloop
endfacet
facet normal -0.92388 0.382683 0
  outer loop
    vertex -1.41421 1.41421 23.0317
    vertex -2 0 22
    vertex -2 0 24
  endloop
endfacet
facet normal -0.92388 0.382683 0
  outer loop
    vertex -1.41421 1.41421 21.1247
    vertex -2 0 22
    vertex -1.41421 1.41421 23.0317
  endloop
endfacet
facet normal -0.382683 0.92388 0
  outer loop
    vertex 0 2 22
    vertex -1.41421 1.41421 23.0317
    vertex 0 2 24
  endloop
endfacet
facet normal -0.382683 0.92388 0
  outer loop
    vertex 0 2 22
    vertex -1.41421 1.41421 21.1247
    vertex -1.41421 1.41421 23.0317
  endloop
endfacet
facet normal -0.924184 0.381948 0
  outer loop
    vertex -1.41646 1.41196 5.02404
    vertex -2 0 4
    vertex -2 0 6
  endloop
endfacet
facet normal -0.924578 0.380991 0.00154492
  outer loop
    vertex -1.42191 1.40648 3.11793
    vertex -2 0 4
    vertex -1.41646 1.41196 5.02404
  endloop
endfacet
facet normal -0.383418 0.923575 0
  outer loop
    vertex 0 2 4
    vertex -1.41646 1.41196 5.02404
    vertex 0 2 6
  endloop
endfacet
facet normal -0.384378 0.923174 -0.00155758
  outer loop
    vertex 0 2 4
    vertex -1.42191 1.40648 3.11793
    vertex -1.41646 1.41196 5.02404
  endloop
endfacet
facet normal -0.922075 0.386964 -0.00596375
  outer loop
    vertex -1.41014 1.41828 48.8257
    vertex -1.38958 1.43843 46.9545
    vertex -2 0 48
  endloop
endfacet
facet normal -0.378438 0.925608 0.00580855
  outer loop
    vertex -1.38958 1.43843 46.9545
    vertex -1.41014 1.41828 48.8257
    vertex 0 2 48
  endloop
endfacet
facet normal -0.923328 0.384013 0
  outer loop
    vertex -1.41014 1.41828 48.8257
    vertex -2 0 48
    vertex -2 0 50
  endloop
endfacet
facet normal -0.923878 0.382683 -0.00188274
  outer loop
    vertex -1.41421 1.41421 50
    vertex -1.41014 1.41828 48.8257
    vertex -2 0 50
  endloop
endfacet
facet normal -0.921138 0.389228 0.00252186
  outer loop
    vertex -2 0 46
    vertex -1.38958 1.43843 46.9545
    vertex -1.3987 1.42956 44.9907
  endloop
endfacet
facet normal -0.376129 0.926564 -0.00243803
  outer loop
    vertex -1.38958 1.43843 46.9545
    vertex 0 2 46
    vertex -1.3987 1.42956 44.9907
  endloop
endfacet
facet normal -0.92388 0.382683 0
  outer loop
    vertex -2 0 16
    vertex -1.41421 1.41421 13.9707
    vertex -2 0 14
  endloop
endfacet
facet normal -0.92388 0.382683 0
  outer loop
    vertex -2 0 16
    vertex -1.41421 1.41421 15.7658
    vertex -1.41421 1.41421 13.9707
  endloop
endfacet
facet normal -0.382683 0.92388 0
  outer loop
    vertex -1.41421 1.41421 13.9707
    vertex 0 2 16
    vertex 0 2 14
  endloop
endfacet
facet normal -0.382683 0.92388 0
  outer loop
    vertex -1.41421 1.41421 15.7658
    vertex 0 2 16
    vertex -1.41421 1.41421 13.9707
  endloop
endfacet
facet normal -0.923905 0.382622 0
  outer loop
    vertex -1.4144 1.41403 10.0331
    vertex -2 0 8
    vertex -2 0 10
  endloop
endfacet
facet normal -0.924108 0.382132 0.000399811
  outer loop
    vertex -1.41571 1.41272 8.26486
    vertex -2 0 8
    vertex -1.4144 1.41403 10.0331
  endloop
endfacet
facet normal -0.382744 0.923854 0
  outer loop
    vertex 0 2 8
    vertex -1.4144 1.41403 10.0331
    vertex 0 2 10
  endloop
endfacet
facet normal -0.383235 0.923651 -0.000399805
  outer loop
    vertex 0 2 8
    vertex -1.41571 1.41272 8.26486
    vertex -1.4144 1.41403 10.0331
  endloop
endfacet
facet normal -0.92388 0.382683 0
  outer loop
    vertex -2 0 34
    vertex -1.41421 1.41421 32.0166
    vertex -2 0 32
  endloop
endfacet
facet normal -0.92388 0.382683 0
  outer loop
    vertex -2 0 34
    vertex -1.41421 1.41421 33.8894
    vertex -1.41421 1.41421 32.0166
  endloop
endfacet
facet normal -0.382683 0.92388 0
  outer loop
    vertex -1.41421 1.41421 32.0166
    vertex 0 2 34
    vertex 0 2 32
  endloop
endfacet
facet normal -0.382683 0.92388 0
  outer loop
    vertex -1.41421 1.41421 33.8894
    vertex 0 2 34
    vertex -1.41421 1.41421 32.0166
  endloop
endfacet
facet normal -0.92388 0.382683 0
  outer loop
    vertex -1.41421 1.41421 28.9566
    vertex -1.41421 1.41421 26.9198
    vertex -2 0 28
  endloop
endfacet
facet normal -0.382683 0.92388 0
  outer loop
    vertex -1.41421 1.41421 26.9198
    vertex -1.41421 1.41421 28.9566
    vertex 0 2 28
  endloop
endfacet
facet normal -0.92388 0.382683 0
  outer loop
    vertex -2 0 30
    vertex -1.41421 1.41421 28.9566
    vertex -2 0 28
  endloop
endfacet
facet normal -0.92388 0.382683 0
  outer loop
    vertex -2 0 30
    vertex -1.41421 1.41421 30.2433
    vertex -1.41421 1.41421 28.9566
  endloop
endfacet
facet normal -0.382683 0.92388 0
  outer loop
    vertex -1.41421 1.41421 28.9566
    vertex 0 2 30
    vertex 0 2 28
  endloop
endfacet
facet normal -0.382683 0.92388 0
  outer loop
    vertex -1.41421 1.41421 30.2433
    vertex 0 2 30
    vertex -1.41421 1.41421 28.9566
  endloop
endfacet
facet normal -0.92388 0.382683 0
  outer loop
    vertex -1.41421 1.41421 32.0166
    vertex -2 0 30
    vertex -2 0 32
  endloop
endfacet
facet normal -0.92388 0.382683 0
  outer loop
    vertex -1.41421 1.41421 30.2433
    vertex -2 0 30
    vertex -1.41421 1.41421 32.0166
  endloop
endfacet
facet normal -0.382683 0.92388 0
  outer loop
    vertex 0 2 30
    vertex -1.41421 1.41421 32.0166
    vertex 0 2 32
  endloop
endfacet
facet normal -0.382683 0.92388 0
  outer loop
    vertex 0 2 30
    vertex -1.41421 1.41421 30.2433
    vertex -1.41421 1.41421 32.0166
  endloop
endfacet
facet normal 0.382679 0.923869 -0.0046707
  outer loop
    vertex 1.4026 1.42574 1.32735
    vertex 1.41421 1.41421 0
    vertex 0 2 0
  endloop
endfacet
facet normal 0.378901 0.925437 0
  outer loop
    vertex 0 2 2
    vertex 1.4026 1.42574 1.32735
    vertex 0 2 0
  endloop
endfacet
facet normal 0.380793 0.92466 0
  outer loop
    vertex 0 2 8
    vertex 1.40842 1.41999 7.02633
    vertex 0 2 6
  endloop
endfacet
facet normal 0.381896 0.924203 0.0018677
  outer loop
    vertex 0 2 8
    vertex 1.41272 1.41571 8.26486
    vertex 1.40842 1.41999 7.02633
  endloop
endfacet
facet normal 0.923095 0.384572 -0
  outer loop
    vertex 2 0 6
    vertex 1.40842 1.41999 7.02633
    vertex 2 0 8
  endloop
endfacet
facet normal 0.923551 0.383471 -0.00188329
  outer loop
    vertex 1.41272 1.41571 8.26486
    vertex 2 0 8
    vertex 1.40842 1.41999 7.02633
  endloop
endfacet
facet normal 0.380163 0.92492 0
  outer loop
    vertex 1.40648 1.42191 3.11793
    vertex 0 2 2
    vertex 0 2 4
  endloop
endfacet
facet normal 0.922832 0.385201 0
  outer loop
    vertex 1.40648 1.42191 3.11793
    vertex 2 0 4
    vertex 2 0 2
  endloop
endfacet
facet normal 0.382683 0.92388 0
  outer loop
    vertex 1.41421 1.41421 13.9707
    vertex 0 2 12
    vertex 0 2 14
  endloop
endfacet
facet normal 0.382683 0.92388 -0
  outer loop
    vertex 1.41421 1.41421 12
    vertex 0 2 12
    vertex 1.41421 1.41421 13.9707
  endloop
endfacet
facet normal 0.92388 0.382683 0
  outer loop
    vertex 1.41421 1.41421 13.9707
    vertex 2 0 14
    vertex 2 0 12
  endloop
endfacet
facet normal 0.92388 0.382683 0
  outer loop
    vertex 2 0 12
    vertex 1.41421 1.41421 12
    vertex 1.41421 1.41421 13.9707
  endloop
endfacet
facet normal 0.382683 0.92388 0
  outer loop
    vertex 0 2 18
    vertex 1.41421 1.41421 17.0926
    vertex 0 2 16
  endloop
endfacet
facet normal 0.92388 0.382683 -0
  outer loop
    vertex 2 0 16
    vertex 1.41421 1.41421 17.0926
    vertex 2 0 18
  endloop
endfacet
facet normal 0.92388 0.382683 0
  outer loop
    vertex 2 0 16
    vertex 1.41421 1.41421 15.7658
    vertex 1.41421 1.41421 17.0926
  endloop
endfacet
facet normal 0.382683 0.92388 -0
  outer loop
    vertex 1.41421 1.41421 15.7658
    vertex 0 2 16
    vertex 1.41421 1.41421 17.0926
  endloop
endfacet
facet normal 0.390647 0.92054 0
  outer loop
    vertex 1.43843 1.38958 46.9545
    vertex 0 2 46
    vertex 0 2 48
  endloop
endfacet
facet normal 0.92715 0.374691 0
  outer loop
    vertex 1.43843 1.38958 46.9545
    vertex 2 0 48
    vertex 2 0 46
  endloop
endfacet
facet normal 0.382683 0.92388 0
  outer loop
    vertex 1.41421 1.41421 35.0917
    vertex 0 2 34
    vertex 0 2 36
  endloop
endfacet
facet normal 0.382683 0.92388 -0
  outer loop
    vertex 1.41421 1.41421 33.8894
    vertex 0 2 34
    vertex 1.41421 1.41421 35.0917
  endloop
endfacet
facet normal 0.92388 0.382683 0
  outer loop
    vertex 1.41421 1.41421 35.0917
    vertex 2 0 36
    vertex 2 0 34
  endloop
endfacet
facet normal 0.92388 0.382683 0
  outer loop
    vertex 2 0 34
    vertex 1.41421 1.41421 33.8894
    vertex 1.41421 1.41421 35.0917
  endloop
endfacet
facet normal 0.382683 0.92388 0
  outer loop
    vertex 1.41421 1.41421 37.3495
    vertex 0 2 36
    vertex 0 2 38
  endloop
endfacet
facet normal 0.382683 0.92388 -0
  outer loop
    vertex 1.41421 1.41421 35.0917
    vertex 0 2 36
    vertex 1.41421 1.41421 37.3495
  endloop
endfacet
facet normal 0.92388 0.382683 0
  outer loop
    vertex 1.41421 1.41421 37.3495
    vertex 2 0 38
    vertex 2 0 36
  endloop
endfacet
facet normal 0.92388 0.382683 0
  outer loop
    vertex 2 0 36
    vertex 1.41421 1.41421 35.0917
    vertex 1.41421 1.41421 37.3495
  endloop
endfacet
facet normal 0.382683 0.92388 0
  outer loop
    vertex 1.41421 1.41421 40.0972
    vertex 0 2 38
    vertex 0 2 40
  endloop
endfacet
facet normal 0.382683 0.92388 -0
  outer loop
    vertex 1.41421 1.41421 37.3495
    vertex 0 2 38
    vertex 1.41421 1.41421 40.0972
  endloop
endfacet
facet normal 0.92388 0.382683 0
  outer loop
    vertex 1.41421 1.41421 40.0972
    vertex 2 0 40
    vertex 2 0 38
  endloop
endfacet
facet normal 0.92388 0.382683 0
  outer loop
    vertex 2 0 38
    vertex 1.41421 1.41421 37.3495
    vertex 1.41421 1.41421 40.0972
  endloop
endfacet
facet normal 0.382683 0.92388 0
  outer loop
    vertex 1.41421 1.41421 40.0972
    vertex 0 2 40
    vertex 0 2 42
  endloop
endfacet
facet normal 0.92388 0.382683 0
  outer loop
    vertex 1.41421 1.41421 40.0972
    vertex 2 0 42
    vertex 2 0 40
  endloop
endfacet
facet normal 0.92388 0.382683 0
  outer loop
    vertex 1.41421 1.41421 42.7778
    vertex 2 0 42
    vertex 1.41421 1.41421 40.0972
  endloop
endfacet
facet normal 0.382683 0.92388 0
  outer loop
    vertex 0 2 42
    vertex 1.41421 1.41421 42.7778
    vertex 1.41421 1.41421 40.0972
  endloop
endfacet
facet normal 0.382683 0.92388 0
  outer loop
    vertex 0 2 22
    vertex 1.41421 1.41421 21.1247
    vertex 0 2 20
  endloop
endfacet
facet normal 0.92388 0.382683 -0
  outer loop
    vertex 2 0 20
    vertex 1.41421 1.41421 21.1247
    vertex 2 0 22
  endloop
endfacet
facet normal 0.92388 0.382683 0
  outer loop
    vertex 2 0 20
    vertex 1.41421 1.41421 19.3333
    vertex 1.41421 1.41421 21.1247
  endloop
endfacet
facet normal 0.382683 0.92388 -0
  outer loop
    vertex 1.41421 1.41421 19.3333
    vertex 0 2 20
    vertex 1.41421 1.41421 21.1247
  endloop
endfacet
facet normal 0.382683 0.92388 0
  outer loop
    vertex 1.41421 1.41421 25.0653
    vertex 0 2 24
    vertex 0 2 26
  endloop
endfacet
facet normal 0.92388 0.382683 0
  outer loop
    vertex 1.41421 1.41421 25.0653
    vertex 2 0 26
    vertex 2 0 24
  endloop
endfacet
facet normal 0.382622 0.923905 0
  outer loop
    vertex 0 2 12
    vertex 1.41403 1.4144 10.0331
    vertex 0 2 10
  endloop
endfacet
facet normal 0.382683 0.92388 5.13389e-05
  outer loop
    vertex 0 2 12
    vertex 1.41421 1.41421 12
    vertex 1.41403 1.4144 10.0331
  endloop
endfacet
facet normal 0.923854 0.382744 -0
  outer loop
    vertex 2 0 10
    vertex 1.41403 1.4144 10.0331
    vertex 2 0 12
  endloop
endfacet
facet normal 0.92388 0.382683 -5.13553e-05
  outer loop
    vertex 1.41421 1.41421 12
    vertex 2 0 12
    vertex 1.41403 1.4144 10.0331
  endloop
endfacet
facet normal 0.382683 0.92388 0
  outer loop
    vertex 1.41421 1.41421 26.9198
    vertex 0 2 26
    vertex 0 2 28
  endloop
endfacet
facet normal 0.92388 0.382683 0
  outer loop
    vertex 1.41421 1.41421 26.9198
    vertex 2 0 28
    vertex 2 0 26
  endloop
endfacet
facet normal 0.382683 0.92388 0
  outer loop
    vertex 1.41421 1.41421 19.3333
    vertex 0 2 18
    vertex 0 2 20
  endloop
endfacet
facet normal 0.382683 0.92388 -0
  outer loop
    vertex 1.41421 1.41421 17.0926
    vertex 0 2 18
    vertex 1.41421 1.41421 19.3333
  endloop
endfacet
facet normal 0.92388 0.382683 0
  outer loop
    vertex 1.41421 1.41421 19.3333
    vertex 2 0 20
    vertex 2 0 18
  endloop
endfacet
facet normal 0.92388 0.382683 0
  outer loop
    vertex 2 0 18
    vertex 1.41421 1.41421 17.0926
    vertex 1.41421 1.41421 19.3333
  endloop
endfacet
facet normal 0.382683 0.92388 0
  outer loop
    vertex 0 2 44
    vertex 1.41421 1.41421 42.7778
    vertex 0 2 42
  endloop
endfacet
facet normal 0.385478 0.922709 0.00379473
  outer loop
    vertex 0 2 44
    vertex 1.42956 1.3987 44.9907
    vertex 1.41421 1.41421 42.7778
  endloop
endfacet
facet normal 0.92388 0.382683 -0
  outer loop
    vertex 2 0 42
    vertex 1.41421 1.41421 42.7778
    vertex 2 0 44
  endloop
endfacet
facet normal 0.925015 0.379913 -0.00375025
  outer loop
    vertex 1.42956 1.3987 44.9907
    vertex 2 0 44
    vertex 1.41421 1.41421 42.7778
  endloop
endfacet
facet normal 0.387717 0.921779 0
  outer loop
    vertex 1.42956 1.3987 44.9907
    vertex 0 2 44
    vertex 0 2 46
  endloop
endfacet
facet normal 0.925953 0.377639 0
  outer loop
    vertex 1.42956 1.3987 44.9907
    vertex 2 0 46
    vertex 2 0 44
  endloop
endfacet
facet normal 0.379376 0.925242 0.00115654
  outer loop
    vertex 1.4026 1.42574 1.32735
    vertex 0 2 2
    vertex 1.40648 1.42191 3.11793
  endloop
endfacet
facet normal 0.922503 0.385988 -0.00117477
  outer loop
    vertex 2 0 2
    vertex 1.4026 1.42574 1.32735
    vertex 1.40648 1.42191 3.11793
  endloop
endfacet
facet normal 0.382683 0.92388 -0
  outer loop
    vertex 1.41421 1.41421 25.0653
    vertex 0 2 26
    vertex 1.41421 1.41421 26.9198
  endloop
endfacet
facet normal 0.92388 0.382683 0
  outer loop
    vertex 2 0 26
    vertex 1.41421 1.41421 25.0653
    vertex 1.41421 1.41421 26.9198
  endloop
endfacet
facet normal 0.923869 0.382679 0.00476387
  outer loop
    vertex 2 0 0
    vertex 1.41421 1.41421 0
    vertex 1.4026 1.42574 1.32735
  endloop
endfacet
facet normal 0.922306 0.386459 0
  outer loop
    vertex 2 0 2
    vertex 2 0 0
    vertex 1.4026 1.42574 1.32735
  endloop
endfacet
facet normal 0.923878 0.382683 0.0018697
  outer loop
    vertex 1.41828 1.41014 48.8257
    vertex 1.41421 1.41421 50
    vertex 2 0 50
  endloop
endfacet
facet normal 0.924429 0.381353 -0
  outer loop
    vertex 2 0 48
    vertex 1.41828 1.41014 48.8257
    vertex 2 0 50
  endloop
endfacet
facet normal 0.381386 0.924415 -0.00095223
  outer loop
    vertex 1.40842 1.41999 7.02633
    vertex 1.41196 1.41646 5.02404
    vertex 0 2 6
  endloop
endfacet
facet normal 0.92334 0.383981 0.000958856
  outer loop
    vertex 1.41196 1.41646 5.02404
    vertex 1.40842 1.41999 7.02633
    vertex 2 0 6
  endloop
endfacet
facet normal 0.92388 0.382683 -0
  outer loop
    vertex 1.41421 1.41421 23.0317
    vertex 1.41421 1.41421 25.0653
    vertex 2 0 24
  endloop
endfacet
facet normal 0.382683 0.92388 0
  outer loop
    vertex 1.41421 1.41421 25.0653
    vertex 1.41421 1.41421 23.0317
    vertex 0 2 24
  endloop
endfacet
facet normal 0.382683 0.92388 0
  outer loop
    vertex 1.41421 1.41421 23.0317
    vertex 0 2 22
    vertex 0 2 24
  endloop
endfacet
facet normal 0.382683 0.92388 -0
  outer loop
    vertex 1.41421 1.41421 21.1247
    vertex 0 2 22
    vertex 1.41421 1.41421 23.0317
  endloop
endfacet
facet normal 0.92388 0.382683 -0
  outer loop
    vertex 2 0 22
    vertex 1.41421 1.41421 23.0317
    vertex 2 0 24
  endloop
endfacet
facet normal 0.92388 0.382683 0
  outer loop
    vertex 2 0 22
    vertex 1.41421 1.41421 21.1247
    vertex 1.41421 1.41421 23.0317
  endloop
endfacet
facet normal 0.381948 0.924184 0
  outer loop
    vertex 1.41196 1.41646 5.02404
    vertex 0 2 4
    vertex 0 2 6
  endloop
endfacet
facet normal 0.380991 0.924578 0.00154492
  outer loop
    vertex 1.40648 1.42191 3.11793
    vertex 0 2 4
    vertex 1.41196 1.41646 5.02404
  endloop
endfacet
facet normal 0.923575 0.383418 -0
  outer loop
    vertex 2 0 4
    vertex 1.41196 1.41646 5.02404
    vertex 2 0 6
  endloop
endfacet
facet normal 0.923174 0.384378 -0.00155758
  outer loop
    vertex 2 0 4
    vertex 1.40648 1.42191 3.11793
    vertex 1.41196 1.41646 5.02404
  endloop
endfacet
facet normal 0.386964 0.922075 -0.00596375
  outer loop
    vertex 1.41828 1.41014 48.8257
    vertex 1.43843 1.38958 46.9545
    vertex 0 2 48
  endloop
endfacet
facet normal 0.925608 0.378438 0.00580855
  outer loop
    vertex 1.43843 1.38958 46.9545
    vertex 1.41828 1.41014 48.8257
    vertex 2 0 48
  endloop
endfacet
facet normal 0.384013 0.923328 0
  outer loop
    vertex 1.41828 1.41014 48.8257
    vertex 0 2 48
    vertex 0 2 50
  endloop
endfacet
facet normal 0.382683 0.923878 -0.00188274
  outer loop
    vertex 1.41421 1.41421 50
    vertex 1.41828 1.41014 48.8257
    vertex 0 2 50
  endloop
endfacet
facet normal 0.389228 0.921138 0.00252186
  outer loop
    vertex 0 2 46
    vertex 1.43843 1.38958 46.9545
    vertex 1.42956 1.3987 44.9907
  endloop
endfacet
facet normal 0.926564 0.376129 -0.00243803
  outer loop
    vertex 1.43843 1.38958 46.9545
    vertex 2 0 46
    vertex 1.42956 1.3987 44.9907
  endloop
endfacet
facet normal 0.382683 0.92388 0
  outer loop
    vertex 0 2 16
    vertex 1.41421 1.41421 13.9707
    vertex 0 2 14
  endloop
endfacet
facet normal 0.382683 0.92388 0
  outer loop
    vertex 0 2 16
    vertex 1.41421 1.41421 15.7658
    vertex 1.41421 1.41421 13.9707
  endloop
endfacet
facet normal 0.92388 0.382683 0
  outer loop
    vertex 1.41421 1.41421 13.9707
    vertex 2 0 16
    vertex 2 0 14
  endloop
endfacet
facet normal 0.92388 0.382683 0
  outer loop
    vertex 1.41421 1.41421 15.7658
    vertex 2 0 16
    vertex 1.41421 1.41421 13.9707
  endloop
endfacet
facet normal 0.382622 0.923905 0
  outer loop
    vertex 1.41403 1.4144 10.0331
    vertex 0 2 8
    vertex 0 2 10
  endloop
endfacet
facet normal 0.382132 0.924108 0.000399811
  outer loop
    vertex 1.41272 1.41571 8.26486
    vertex 0 2 8
    vertex 1.41403 1.4144 10.0331
  endloop
endfacet
facet normal 0.923854 0.382744 -0
  outer loop
    vertex 2 0 8
    vertex 1.41403 1.4144 10.0331
    vertex 2 0 10
  endloop
endfacet
facet normal 0.923651 0.383235 -0.000399805
  outer loop
    vertex 2 0 8
    vertex 1.41272 1.41571 8.26486
    vertex 1.41403 1.4144 10.0331
  endloop
endfacet
facet normal 0.382683 0.92388 0
  outer loop
    vertex 0 2 34
    vertex 1.41421 1.41421 32.0166
    vertex 0 2 32
  endloop
endfacet
facet normal 0.382683 0.92388 0
  outer loop
    vertex 0 2 34
    vertex 1.41421 1.41421 33.8894
    vertex 1.41421 1.41421 32.0166
  endloop
endfacet
facet normal 0.92388 0.382683 0
  outer loop
    vertex 1.41421 1.41421 32.0166
    vertex 2 0 34
    vertex 2 0 32
  endloop
endfacet
facet normal 0.92388 0.382683 0
  outer loop
    vertex 1.41421 1.41421 33.8894
    vertex 2 0 34
    vertex 1.41421 1.41421 32.0166
  endloop
endfacet
facet normal 0.382683 0.92388 0
  outer loop
    vertex 1.41421 1.41421 28.9566
    vertex 1.41421 1.41421 26.9198
    vertex 0 2 28
  endloop
endfacet
facet normal 0.92388 0.382683 -0
  outer loop
    vertex 1.41421 1.41421 26.9198
    vertex 1.41421 1.41421 28.9566
    vertex 2 0 28
  endloop
endfacet
facet normal 0.382683 0.92388 0
  outer loop
    vertex 0 2 30
    vertex 1.41421 1.41421 28.9566
    vertex 0 2 28
  endloop
endfacet
facet normal 0.382683 0.92388 0
  outer loop
    vertex 0 2 30
    vertex 1.41421 1.41421 30.2433
    vertex 1.41421 1.41421 28.9566
  endloop
endfacet
facet normal 0.92388 0.382683 0
  outer loop
    vertex 1.41421 1.41421 28.9566
    vertex 2 0 30
    vertex 2 0 28
  endloop
endfacet
facet normal 0.92388 0.382683 0
  outer loop
    vertex 1.41421 1.41421 30.2433
    vertex 2 0 30
    vertex 1.41421 1.41421 28.9566
  endloop
endfacet
facet normal 0.382683 0.92388 0
  outer loop
    vertex 1.41421 1.41421 32.0166
    vertex 0 2 30
    vertex 0 2 32
  endloop
endfacet
facet normal 0.382683 0.92388 -0
  outer loop
    vertex 1.41421 1.41421 30.2433
    vertex 0 2 30
    vertex 1.41421 1.41421 32.0166
  endloop
endfacet
facet normal 0.92388 0.382683 -0
  outer loop
    vertex 2 0 30
    vertex 1.41421 1.41421 32.0166
    vertex 2 0 32
  endloop
endfacet
facet normal 0.92388 0.382683 0
  outer loop
    vertex 2 0 30
    vertex 1.41421 1.41421 30.2433
    vertex 1.41421 1.41421 32.0166
  endloop
endfacet
facet normal 0.923869 -0.382679 -0.0046707
  outer loop
    vertex 1.42574 -1.4026 1.32735
    vertex 1.41421 -1.41421 0
    vertex 2 0 0
  endloop
endfacet
facet normal 0.925437 -0.378901 0
  outer loop
    vertex 2 0 2
    vertex 1.42574 -1.4026 1.32735
    vertex 2 0 0
  endloop
endfacet
facet normal 0.384572 -0.923095 0
  outer loop
    vertex 0 -2 6
    vertex 1.41999 -1.40842 7.02633
    vertex 0 -2 8
  endloop
endfacet
facet normal 0.92466 -0.380793 0
  outer loop
    vertex 2 0 8
    vertex 1.41999 -1.40842 7.02633
    vertex 2 0 6
  endloop
endfacet
facet normal 0.924203 -0.381896 0.0018677
  outer loop
    vertex 2 0 8
    vertex 1.41571 -1.41272 8.26486
    vertex 1.41999 -1.40842 7.02633
  endloop
endfacet
facet normal 0.383471 -0.923551 -0.00188329
  outer loop
    vertex 1.41571 -1.41272 8.26486
    vertex 0 -2 8
    vertex 1.41999 -1.40842 7.02633
  endloop
endfacet
facet normal 0.385201 -0.922832 0
  outer loop
    vertex 1.42191 -1.40648 3.11793
    vertex 0 -2 4
    vertex 0 -2 2
  endloop
endfacet
facet normal 0.92492 -0.380163 0
  outer loop
    vertex 1.42191 -1.40648 3.11793
    vertex 2 0 2
    vertex 2 0 4
  endloop
endfacet
facet normal 0.382683 -0.92388 0
  outer loop
    vertex 1.41421 -1.41421 13.9707
    vertex 0 -2 14
    vertex 0 -2 12
  endloop
endfacet
facet normal 0.92388 -0.382683 0
  outer loop
    vertex 1.41421 -1.41421 13.9707
    vertex 2 0 12
    vertex 2 0 14
  endloop
endfacet
facet normal 0.92388 -0.382683 0
  outer loop
    vertex 1.41421 -1.41421 12
    vertex 2 0 12
    vertex 1.41421 -1.41421 13.9707
  endloop
endfacet
facet normal 0.382683 -0.92388 0
  outer loop
    vertex 0 -2 12
    vertex 1.41421 -1.41421 12
    vertex 1.41421 -1.41421 13.9707
  endloop
endfacet
facet normal 0.382683 -0.92388 0
  outer loop
    vertex 0 -2 16
    vertex 1.41421 -1.41421 17.0926
    vertex 0 -2 18
  endloop
endfacet
facet normal 0.382683 -0.92388 0
  outer loop
    vertex 0 -2 16
    vertex 1.41421 -1.41421 15.7658
    vertex 1.41421 -1.41421 17.0926
  endloop
endfacet
facet normal 0.92388 -0.382683 0
  outer loop
    vertex 2 0 18
    vertex 1.41421 -1.41421 17.0926
    vertex 2 0 16
  endloop
endfacet
facet normal 0.92388 -0.382683 0
  outer loop
    vertex 1.41421 -1.41421 15.7658
    vertex 2 0 16
    vertex 1.41421 -1.41421 17.0926
  endloop
endfacet
facet normal 0.374691 -0.92715 0
  outer loop
    vertex 0 -2 46
    vertex 1.38958 -1.43843 46.9545
    vertex 0 -2 48
  endloop
endfacet
facet normal 0.92054 -0.390647 0
  outer loop
    vertex 2 0 48
    vertex 1.38958 -1.43843 46.9545
    vertex 2 0 46
  endloop
endfacet
facet normal 0.382683 -0.92388 0
  outer loop
    vertex 1.41421 -1.41421 35.0917
    vertex 0 -2 36
    vertex 0 -2 34
  endloop
endfacet
facet normal 0.92388 -0.382683 0
  outer loop
    vertex 1.41421 -1.41421 35.0917
    vertex 2 0 34
    vertex 2 0 36
  endloop
endfacet
facet normal 0.92388 -0.382683 0
  outer loop
    vertex 1.41421 -1.41421 33.8894
    vertex 2 0 34
    vertex 1.41421 -1.41421 35.0917
  endloop
endfacet
facet normal 0.382683 -0.92388 0
  outer loop
    vertex 0 -2 34
    vertex 1.41421 -1.41421 33.8894
    vertex 1.41421 -1.41421 35.0917
  endloop
endfacet
facet normal 0.382683 -0.92388 0
  outer loop
    vertex 1.41421 -1.41421 37.3495
    vertex 0 -2 38
    vertex 0 -2 36
  endloop
endfacet
facet normal 0.92388 -0.382683 0
  outer loop
    vertex 1.41421 -1.41421 37.3495
    vertex 2 0 36
    vertex 2 0 38
  endloop
endfacet
facet normal 0.92388 -0.382683 0
  outer loop
    vertex 1.41421 -1.41421 35.0917
    vertex 2 0 36
    vertex 1.41421 -1.41421 37.3495
  endloop
endfacet
facet normal 0.382683 -0.92388 0
  outer loop
    vertex 0 -2 36
    vertex 1.41421 -1.41421 35.0917
    vertex 1.41421 -1.41421 37.3495
  endloop
endfacet
facet normal 0.382683 -0.92388 0
  outer loop
    vertex 1.41421 -1.41421 40.0972
    vertex 0 -2 40
    vertex 0 -2 38
  endloop
endfacet
facet normal 0.92388 -0.382683 0
  outer loop
    vertex 1.41421 -1.41421 40.0972
    vertex 2 0 38
    vertex 2 0 40
  endloop
endfacet
facet normal 0.92388 -0.382683 0
  outer loop
    vertex 1.41421 -1.41421 37.3495
    vertex 2 0 38
    vertex 1.41421 -1.41421 40.0972
  endloop
endfacet
facet normal 0.382683 -0.92388 0
  outer loop
    vertex 0 -2 38
    vertex 1.41421 -1.41421 37.3495
    vertex 1.41421 -1.41421 40.0972
  endloop
endfacet
facet normal 0.382683 -0.92388 0
  outer loop
    vertex 1.41421 -1.41421 40.0972
    vertex 0 -2 42
    vertex 0 -2 40
  endloop
endfacet
facet normal 0.382683 -0.92388 0
  outer loop
    vertex 1.41421 -1.41421 42.7778
    vertex 0 -2 42
    vertex 1.41421 -1.41421 40.0972
  endloop
endfacet
facet normal 0.92388 -0.382683 0
  outer loop
    vertex 1.41421 -1.41421 40.0972
    vertex 2 0 40
    vertex 2 0 42
  endloop
endfacet
facet normal 0.92388 -0.382683 0
  outer loop
    vertex 2 0 42
    vertex 1.41421 -1.41421 42.7778
    vertex 1.41421 -1.41421 40.0972
  endloop
endfacet
facet normal 0.382683 -0.92388 0
  outer loop
    vertex 0 -2 24
    vertex 1.41421 -1.41421 26.07
    vertex 0 -2 26
  endloop
endfacet
facet normal 0.382683 -0.92388 0
  outer loop
    vertex 0 -2 24
    vertex 1.41421 -1.41421 23.8056
    vertex 1.41421 -1.41421 26.07
  endloop
endfacet
facet normal 0.92388 -0.382683 0
  outer loop
    vertex 2 0 26
    vertex 1.41421 -1.41421 26.07
    vertex 2 0 24
  endloop
endfacet
facet normal 0.92388 -0.382683 0
  outer loop
    vertex 1.41421 -1.41421 23.8056
    vertex 2 0 24
    vertex 1.41421 -1.41421 26.07
  endloop
endfacet
facet normal 0.382744 -0.923854 0
  outer loop
    vertex 1.4144 -1.41403 10.0331
    vertex 0 -2 12
    vertex 0 -2 10
  endloop
endfacet
facet normal 0.382683 -0.92388 -5.13553e-05
  outer loop
    vertex 1.41421 -1.41421 12
    vertex 0 -2 12
    vertex 1.4144 -1.41403 10.0331
  endloop
endfacet
facet normal 0.923905 -0.382622 0
  outer loop
    vertex 1.4144 -1.41403 10.0331
    vertex 2 0 10
    vertex 2 0 12
  endloop
endfacet
facet normal 0.92388 -0.382683 5.13389e-05
  outer loop
    vertex 2 0 12
    vertex 1.41421 -1.41421 12
    vertex 1.4144 -1.41403 10.0331
  endloop
endfacet
facet normal 0.382683 -0.92388 0
  outer loop
    vertex 1.41421 -1.41421 22
    vertex 0 -2 22
    vertex 0 -2 20
  endloop
endfacet
facet normal 0.92388 -0.382683 0
  outer loop
    vertex 1.41421 -1.41421 22
    vertex 2 0 20
    vertex 2 0 22
  endloop
endfacet
facet normal 0.92388 -0.382683 0
  outer loop
    vertex 1.41421 -1.41421 19.3333
    vertex 2 0 20
    vertex 1.41421 -1.41421 22
  endloop
endfacet
facet normal 0.382683 -0.92388 0
  outer loop
    vertex 0 -2 20
    vertex 1.41421 -1.41421 19.3333
    vertex 1.41421 -1.41421 22
  endloop
endfacet
facet normal 0.382683 -0.92388 0
  outer loop
    vertex 1.41421 -1.41421 19.3333
    vertex 0 -2 20
    vertex 0 -2 18
  endloop
endfacet
facet normal 0.92388 -0.382683 0
  outer loop
    vertex 1.41421 -1.41421 19.3333
    vertex 2 0 18
    vertex 2 0 20
  endloop
endfacet
facet normal 0.92388 -0.382683 0
  outer loop
    vertex 1.41421 -1.41421 17.0926
    vertex 2 0 18
    vertex 1.41421 -1.41421 19.3333
  endloop
endfacet
facet normal 0.382683 -0.92388 0
  outer loop
    vertex 0 -2 18
    vertex 1.41421 -1.41421 17.0926
    vertex 1.41421 -1.41421 19.3333
  endloop
endfacet
facet normal 0.382683 -0.92388 0
  outer loop
    vertex 1.41421 -1.41421 42.7778
    vertex 0 -2 44
    vertex 0 -2 42
  endloop
endfacet
facet normal 0.379913 -0.925015 -0.00375025
  outer loop
    vertex 1.3987 -1.42956 44.9907
    vertex 0 -2 44
    vertex 1.41421 -1.41421 42.7778
  endloop
endfacet
facet normal 0.92388 -0.382683 0
  outer loop
    vertex 1.41421 -1.41421 42.7778
    vertex 2 0 42
    vertex 2 0 44
  endloop
endfacet
facet normal 0.922709 -0.385478 0.00379473
  outer loop
    vertex 2 0 44
    vertex 1.3987 -1.42956 44.9907
    vertex 1.41421 -1.41421 42.7778
  endloop
endfacet
facet normal 0.377639 -0.925953 0
  outer loop
    vertex 0 -2 44
    vertex 1.3987 -1.42956 44.9907
    vertex 0 -2 46
  endloop
endfacet
facet normal 0.921779 -0.387717 0
  outer loop
    vertex 2 0 46
    vertex 1.3987 -1.42956 44.9907
    vertex 2 0 44
  endloop
endfacet
facet normal 0.382683 -0.92388 0
  outer loop
    vertex 0 -2 22
    vertex 1.41421 -1.41421 23.8056
    vertex 0 -2 24
  endloop
endfacet
facet normal 0.382683 -0.92388 0
  outer loop
    vertex 0 -2 22
    vertex 1.41421 -1.41421 22
    vertex 1.41421 -1.41421 23.8056
  endloop
endfacet
facet normal 0.92388 -0.382683 0
  outer loop
    vertex 1.41421 -1.41421 23.8056
    vertex 2 0 22
    vertex 2 0 24
  endloop
endfacet
facet normal 0.92388 -0.382683 0
  outer loop
    vertex 1.41421 -1.41421 22
    vertex 2 0 22
    vertex 1.41421 -1.41421 23.8056
  endloop
endfacet
facet normal 0.385988 -0.922503 -0.00117477
  outer loop
    vertex 0 -2 2
    vertex 1.42574 -1.4026 1.32735
    vertex 1.42191 -1.40648 3.11793
  endloop
endfacet
facet normal 0.925242 -0.379376 0.00115654
  outer loop
    vertex 1.42574 -1.4026 1.32735
    vertex 2 0 2
    vertex 1.42191 -1.40648 3.11793
  endloop
endfacet
facet normal 0.382679 -0.923869 0.00476387
  outer loop
    vertex 0 -2 0
    vertex 1.41421 -1.41421 0
    vertex 1.42574 -1.4026 1.32735
  endloop
endfacet
facet normal 0.386459 -0.922306 0
  outer loop
    vertex 0 -2 2
    vertex 0 -2 0
    vertex 1.42574 -1.4026 1.32735
  endloop
endfacet
facet normal 0.381353 -0.924429 0
  outer loop
    vertex 0 -2 48
    vertex 1.41014 -1.41828 48.8257
    vertex 0 -2 50
  endloop
endfacet
facet normal 0.382683 -0.923878 0.0018697
  outer loop
    vertex 1.41014 -1.41828 48.8257
    vertex 1.41421 -1.41421 50
    vertex 0 -2 50
  endloop
endfacet
facet normal 0.924415 -0.381386 -0.00095223
  outer loop
    vertex 1.41999 -1.40842 7.02633
    vertex 1.41646 -1.41196 5.02404
    vertex 2 0 6
  endloop
endfacet
facet normal 0.383981 -0.92334 0.000958856
  outer loop
    vertex 1.41646 -1.41196 5.02404
    vertex 1.41999 -1.40842 7.02633
    vertex 0 -2 6
  endloop
endfacet
facet normal 0.383418 -0.923575 0
  outer loop
    vertex 0 -2 4
    vertex 1.41646 -1.41196 5.02404
    vertex 0 -2 6
  endloop
endfacet
facet normal 0.384378 -0.923174 -0.00155758
  outer loop
    vertex 0 -2 4
    vertex 1.42191 -1.40648 3.11793
    vertex 1.41646 -1.41196 5.02404
  endloop
endfacet
facet normal 0.924184 -0.381948 0
  outer loop
    vertex 1.41646 -1.41196 5.02404
    vertex 2 0 4
    vertex 2 0 6
  endloop
endfacet
facet normal 0.924578 -0.380991 0.00154492
  outer loop
    vertex 1.42191 -1.40648 3.11793
    vertex 2 0 4
    vertex 1.41646 -1.41196 5.02404
  endloop
endfacet
facet normal 0.922075 -0.386964 -0.00596375
  outer loop
    vertex 1.41014 -1.41828 48.8257
    vertex 1.38958 -1.43843 46.9545
    vertex 2 0 48
  endloop
endfacet
facet normal 0.378438 -0.925608 0.00580855
  outer loop
    vertex 1.38958 -1.43843 46.9545
    vertex 1.41014 -1.41828 48.8257
    vertex 0 -2 48
  endloop
endfacet
facet normal 0.923328 -0.384013 0
  outer loop
    vertex 1.41014 -1.41828 48.8257
    vertex 2 0 48
    vertex 2 0 50
  endloop
endfacet
facet normal 0.923878 -0.382683 -0.00188274
  outer loop
    vertex 1.41421 -1.41421 50
    vertex 1.41014 -1.41828 48.8257
    vertex 2 0 50
  endloop
endfacet
facet normal 0.376129 -0.926564 -0.00243803
  outer loop
    vertex 1.38958 -1.43843 46.9545
    vertex 0 -2 46
    vertex 1.3987 -1.42956 44.9907
  endloop
endfacet
facet normal 0.921138 -0.389228 0.00252186
  outer loop
    vertex 2 0 46
    vertex 1.38958 -1.43843 46.9545
    vertex 1.3987 -1.42956 44.9907
  endloop
endfacet
facet normal 0.382683 -0.92388 0
  outer loop
    vertex 1.41421 -1.41421 30.87
    vertex 0 -2 32
    vertex 0 -2 30
  endloop
endfacet
facet normal 0.382683 -0.92388 0
  outer loop
    vertex 1.41421 -1.41421 32.466
    vertex 0 -2 32
    vertex 1.41421 -1.41421 30.87
  endloop
endfacet
facet normal 0.92388 -0.382683 0
  outer loop
    vertex 2 0 32
    vertex 1.41421 -1.41421 30.87
    vertex 2 0 30
  endloop
endfacet
facet normal 0.92388 -0.382683 0
  outer loop
    vertex 2 0 32
    vertex 1.41421 -1.41421 32.466
    vertex 1.41421 -1.41421 30.87
  endloop
endfacet
facet normal 0.382683 -0.92388 0
  outer loop
    vertex 1.41421 -1.41421 13.9707
    vertex 0 -2 16
    vertex 0 -2 14
  endloop
endfacet
facet normal 0.382683 -0.92388 0
  outer loop
    vertex 1.41421 -1.41421 15.7658
    vertex 0 -2 16
    vertex 1.41421 -1.41421 13.9707
  endloop
endfacet
facet normal 0.92388 -0.382683 0
  outer loop
    vertex 2 0 16
    vertex 1.41421 -1.41421 13.9707
    vertex 2 0 14
  endloop
endfacet
facet normal 0.92388 -0.382683 0
  outer loop
    vertex 2 0 16
    vertex 1.41421 -1.41421 15.7658
    vertex 1.41421 -1.41421 13.9707
  endloop
endfacet
facet normal 0.382683 -0.92388 0
  outer loop
    vertex 1.41421 -1.41421 28.7543
    vertex 0 -2 30
    vertex 0 -2 28
  endloop
endfacet
facet normal 0.382683 -0.92388 0
  outer loop
    vertex 1.41421 -1.41421 30.87
    vertex 0 -2 30
    vertex 1.41421 -1.41421 28.7543
  endloop
endfacet
facet normal 0.92388 -0.382683 0
  outer loop
    vertex 2 0 30
    vertex 1.41421 -1.41421 28.7543
    vertex 2 0 28
  endloop
endfacet
facet normal 0.92388 -0.382683 0
  outer loop
    vertex 2 0 30
    vertex 1.41421 -1.41421 30.87
    vertex 1.41421 -1.41421 28.7543
  endloop
endfacet
facet normal 0.382744 -0.923854 0
  outer loop
    vertex 0 -2 8
    vertex 1.4144 -1.41403 10.0331
    vertex 0 -2 10
  endloop
endfacet
facet normal 0.383235 -0.923651 -0.000399805
  outer loop
    vertex 0 -2 8
    vertex 1.41571 -1.41272 8.26486
    vertex 1.4144 -1.41403 10.0331
  endloop
endfacet
facet normal 0.923905 -0.382622 0
  outer loop
    vertex 1.4144 -1.41403 10.0331
    vertex 2 0 8
    vertex 2 0 10
  endloop
endfacet
facet normal 0.924108 -0.382132 0.000399811
  outer loop
    vertex 1.41571 -1.41272 8.26486
    vertex 2 0 8
    vertex 1.4144 -1.41403 10.0331
  endloop
endfacet
facet normal 0.382683 -0.92388 0
  outer loop
    vertex 1.41421 -1.41421 32.466
    vertex 0 -2 34
    vertex 0 -2 32
  endloop
endfacet
facet normal 0.382683 -0.92388 0
  outer loop
    vertex 1.41421 -1.41421 33.8894
    vertex 0 -2 34
    vertex 1.41421 -1.41421 32.466
  endloop
endfacet
facet normal 0.92388 -0.382683 0
  outer loop
    vertex 2 0 34
    vertex 1.41421 -1.41421 32.466
    vertex 2 0 32
  endloop
endfacet
facet normal 0.92388 -0.382683 0
  outer loop
    vertex 2 0 34
    vertex 1.41421 -1.41421 33.8894
    vertex 1.41421 -1.41421 32.466
  endloop
endfacet
facet normal 0.382683 -0.92388 0
  outer loop
    vertex 1.41421 -1.41421 26.07
    vertex 0 -2 28
    vertex 0 -2 26
  endloop
endfacet
facet normal 0.382683 -0.92388 0
  outer loop
    vertex 1.41421 -1.41421 28.7543
    vertex 0 -2 28
    vertex 1.41421 -1.41421 26.07
  endloop
endfacet
facet normal 0.92388 -0.382683 0
  outer loop
    vertex 2 0 28
    vertex 1.41421 -1.41421 26.07
    vertex 2 0 26
  endloop
endfacet
facet normal 0.92388 -0.382683 0
  outer loop
    vertex 2 0 28
    vertex 1.41421 -1.41421 28.7543
    vertex 1.41421 -1.41421 26.07
  endloop
endfacet
facet normal -0 0 1
  outer loop
    vertex -0.140049 0 50
    vertex -0.0559149 -0.0560741 50
    vertex -0.0583805 0 50
  endloop
endfacet
facet normal 0 -0 1
  outer loop
    vertex 0 -0.140049 50
    vertex 0 -0.0583805 50
    vertex -0.0559149 -0.0560741 50
  endloop
endfacet
facet normal 0 0 1
  outer loop
    vertex -0.298397 -0.186816 50
    vertex -0.334205 -0.0864961 50
    vertex -0.483427 -0.192572 50
  endloop
endfacet
facet normal 0 0 1
  outer loop
    vertex 0 0 50
    vertex -0.0583805 0 50
    vertex -0.0559149 -0.0560741 50
  endloop
endfacet
facet normal 0 0 1
  outer loop
    vertex 0 0 50
    vertex -0.0559149 -0.0560741 50
    vertex 0 -0.0583805 50
  endloop
endfacet
facet normal 0 0 1
  outer loop
    vertex -0.0994898 -0.103159 50
    vertex -0.211004 -0.0998901 50
    vertex -0.13959 -0.22287 50
  endloop
endfacet
facet normal -0 0 1
  outer loop
    vertex -0.301278 -0.332297 50
    vertex -0.128535 -0.347063 50
    vertex -0.13959 -0.22287 50
  endloop
endfacet
facet normal 0 0 1
  outer loop
    vertex -0.140049 0 50
    vertex -0.0994898 -0.103159 50
    vertex -0.0559149 -0.0560741 50
  endloop
endfacet
facet normal 0 0 1
  outer loop
    vertex 0 -0.140049 50
    vertex -0.0559149 -0.0560741 50
    vertex -0.0994898 -0.103159 50
  endloop
endfacet
facet normal 0 0 1
  outer loop
    vertex -0.201807 -0.511734 50
    vertex -0.58956 -0.496754 50
    vertex -0.309504 -0.773354 50
  endloop
endfacet
facet normal 0 -0 1
  outer loop
    vertex 0 -1.38796 50
    vertex 0 -0.950444 50
    vertex -0.475649 -1.17245 50
  endloop
endfacet
facet normal -0 0 1
  outer loop
    vertex -1.38796 0 50
    vertex -1.1692 -0.455511 50
    vertex -0.950444 0 50
  endloop
endfacet
facet normal -0 0 1
  outer loop
    vertex -0.637688 0 50
    vertex -0.483427 -0.192572 50
    vertex -0.414115 0 50
  endloop
endfacet
facet normal 0 -0 1
  outer loop
    vertex 0 -0.637688 50
    vertex 0 -0.414115 50
    vertex -0.201807 -0.511734 50
  endloop
endfacet
facet normal 0 0 1
  outer loop
    vertex -0.0994898 -0.103159 50
    vertex -0.13959 -0.22287 50
    vertex -0.0597699 -0.180093 50
  endloop
endfacet
facet normal 0 0 1
  outer loop
    vertex -0.301278 -0.332297 50
    vertex -0.58956 -0.496754 50
    vertex -0.201807 -0.511734 50
  endloop
endfacet
facet normal 0 0 1
  outer loop
    vertex 0 -0.414115 50
    vertex -0.128535 -0.347063 50
    vertex -0.201807 -0.511734 50
  endloop
endfacet
facet normal 0 0 1
  outer loop
    vertex -0.414115 0 50
    vertex -0.483427 -0.192572 50
    vertex -0.334205 -0.0864961 50
  endloop
endfacet
facet normal -0 0 1
  outer loop
    vertex -1.1692 -0.455511 50
    vertex -0.58956 -0.496754 50
    vertex -0.768999 -0.234423 50
  endloop
endfacet
facet normal 0 0 1
  outer loop
    vertex 0 -0.950444 50
    vertex -0.309504 -0.773354 50
    vertex -0.475649 -1.17245 50
  endloop
endfacet
facet normal 0 0 1
  outer loop
    vertex -0.950444 0 50
    vertex -1.1692 -0.455511 50
    vertex -0.768999 -0.234423 50
  endloop
endfacet
facet normal 0 -0 1
  outer loop
    vertex 0 -0.254296 50
    vertex 0 -0.140049 50
    vertex -0.0597699 -0.180093 50
  endloop
endfacet
facet normal 0 0 1
  outer loop
    vertex -0.140049 0 50
    vertex -0.211004 -0.0998901 50
    vertex -0.0994898 -0.103159 50
  endloop
endfacet
facet normal 0 0 1
  outer loop
    vertex -0.301278 -0.332297 50
    vertex -0.201807 -0.511734 50
    vertex -0.128535 -0.347063 50
  endloop
endfacet
facet normal -0 0 1
  outer loop
    vertex -0.254296 0 50
    vertex -0.211004 -0.0998901 50
    vertex -0.140049 0 50
  endloop
endfacet
facet normal 0 0 1
  outer loop
    vertex -0.794066 -0.794066 50
    vertex -0.309504 -0.773354 50
    vertex -0.58956 -0.496754 50
  endloop
endfacet
facet normal 0 -0 1
  outer loop
    vertex -0.301278 -0.332297 50
    vertex -0.298397 -0.186816 50
    vertex -0.483427 -0.192572 50
  endloop
endfacet
facet normal 0 0 1
  outer loop
    vertex -0.301278 -0.332297 50
    vertex -0.13959 -0.22287 50
    vertex -0.298397 -0.186816 50
  endloop
endfacet
facet normal -0 0 1
  outer loop
    vertex -1.41421 -1.41421 50
    vertex -0.472466 -1.49366 50
    vertex -0.475649 -1.17245 50
  endloop
endfacet
facet normal 0 -0 1
  outer loop
    vertex -1.41421 -1.41421 50
    vertex -1.1692 -0.455511 50
    vertex -1.49284 -0.467431 50
  endloop
endfacet
facet normal 0 0 1
  outer loop
    vertex -1.41421 -1.41421 50
    vertex -0.475649 -1.17245 50
    vertex -0.794066 -0.794066 50
  endloop
endfacet
facet normal 0 0 1
  outer loop
    vertex -1.41421 -1.41421 50
    vertex -0.794066 -0.794066 50
    vertex -1.1692 -0.455511 50
  endloop
endfacet
facet normal 0 -0 1
  outer loop
    vertex 0 -0.414115 50
    vertex 0 -0.254296 50
    vertex -0.128535 -0.347063 50
  endloop
endfacet
facet normal 0 -0 1
  outer loop
    vertex 0 -0.950444 50
    vertex 0 -0.637688 50
    vertex -0.309504 -0.773354 50
  endloop
endfacet
facet normal -0 0 1
  outer loop
    vertex -0.950444 0 50
    vertex -0.768999 -0.234423 50
    vertex -0.637688 0 50
  endloop
endfacet
facet normal -0 0 1
  outer loop
    vertex -0.414115 0 50
    vertex -0.334205 -0.0864961 50
    vertex -0.254296 0 50
  endloop
endfacet
facet normal 0 0 1
  outer loop
    vertex 0 -0.140049 50
    vertex -0.0994898 -0.103159 50
    vertex -0.0597699 -0.180093 50
  endloop
endfacet
facet normal -0 0 1
  outer loop
    vertex -0.794066 -0.794066 50
    vertex -0.475649 -1.17245 50
    vertex -0.309504 -0.773354 50
  endloop
endfacet
facet normal -0 0 1
  outer loop
    vertex -0.298397 -0.186816 50
    vertex -0.13959 -0.22287 50
    vertex -0.211004 -0.0998901 50
  endloop
endfacet
facet normal 0 -0 1
  outer loop
    vertex 0 -2 50
    vertex 0 -1.38796 50
    vertex -0.472466 -1.49366 50
  endloop
endfacet
facet normal -0 0 1
  outer loop
    vertex -2 0 50
    vertex -1.49284 -0.467431 50
    vertex -1.38796 0 50
  endloop
endfacet
facet normal 0 0 1
  outer loop
    vertex 0 -0.254296 50
    vertex -0.0597699 -0.180093 50
    vertex -0.13959 -0.22287 50
  endloop
endfacet
facet normal 0 0 1
  outer loop
    vertex -0.301278 -0.332297 50
    vertex -0.483427 -0.192572 50
    vertex -0.58956 -0.496754 50
  endloop
endfacet
facet normal 0 0 1
  outer loop
    vertex -0.254296 0 50
    vertex -0.334205 -0.0864961 50
    vertex -0.211004 -0.0998901 50
  endloop
endfacet
facet normal 0 0 1
  outer loop
    vertex 0 -0.637688 50
    vertex -0.201807 -0.511734 50
    vertex -0.309504 -0.773354 50
  endloop
endfacet
facet normal 0 0 1
  outer loop
    vertex -0.637688 0 50
    vertex -0.768999 -0.234423 50
    vertex -0.483427 -0.192572 50
  endloop
endfacet
facet normal 0 0 1
  outer loop
    vertex -0.483427 -0.192572 50
    vertex -0.768999 -0.234423 50
    vertex -0.58956 -0.496754 50
  endloop
endfacet
facet normal 0 0 1
  outer loop
    vertex 0 -0.254296 50
    vertex -0.13959 -0.22287 50
    vertex -0.128535 -0.347063 50
  endloop
endfacet
facet normal 0 -0 1
  outer loop
    vertex -0.794066 -0.794066 50
    vertex -0.58956 -0.496754 50
    vertex -1.1692 -0.455511 50
  endloop
endfacet
facet normal 0 0 1
  outer loop
    vertex 0 -1.38796 50
    vertex -0.475649 -1.17245 50
    vertex -0.472466 -1.49366 50
  endloop
endfacet
facet normal 0 0 1
  outer loop
    vertex -1.38796 0 50
    vertex -1.49284 -0.467431 50
    vertex -1.1692 -0.455511 50
  endloop
endfacet
facet normal 0 -0 1
  outer loop
    vertex -0.298397 -0.186816 50
    vertex -0.211004 -0.0998901 50
    vertex -0.334205 -0.0864961 50
  endloop
endfacet
facet normal 0 0 1
  outer loop
    vertex -2 0 50
    vertex -1.41421 -1.41421 50
    vertex -1.49284 -0.467431 50
  endloop
endfacet
facet normal 0 0 1
  outer loop
    vertex 0 -2 50
    vertex -0.472466 -1.49366 50
    vertex -1.41421 -1.41421 50
  endloop
endfacet
facet normal 0 0 -1
  outer loop
    vertex 0 -0.140049 50
    vertex 0 -0.0583805 50
    vertex 0.0560741 -0.0559149 50
  endloop
endfacet
facet normal -0 0 -1
  outer loop
    vertex 0.140049 0 50
    vertex 0.0560741 -0.0559149 50
    vertex 0.0583805 0 50
  endloop
endfacet
facet normal 0 -0 -1
  outer loop
    vertex 0.186816 -0.298397 50
    vertex 0.192572 -0.483427 50
    vertex 0.0864961 -0.334205 50
  endloop
endfacet
facet normal 0 0 -1
  outer loop
    vertex 0 0 50
    vertex 0.0560741 -0.0559149 50
    vertex 0 -0.0583805 50
  endloop
endfacet
facet normal 0 0 -1
  outer loop
    vertex 0 0 50
    vertex 0.0583805 0 50
    vertex 0.0560741 -0.0559149 50
  endloop
endfacet
facet normal 0 -0 -1
  outer loop
    vertex 0.103159 -0.0994898 50
    vertex 0.22287 -0.13959 50
    vertex 0.0998901 -0.211004 50
  endloop
endfacet
facet normal 0 0 -1
  outer loop
    vertex 0.332297 -0.301278 50
    vertex 0.22287 -0.13959 50
    vertex 0.347063 -0.128535 50
  endloop
endfacet
facet normal 0 0 -1
  outer loop
    vertex 0 -0.140049 50
    vertex 0.0560741 -0.0559149 50
    vertex 0.103159 -0.0994898 50
  endloop
endfacet
facet normal 0 0 -1
  outer loop
    vertex 0.140049 0 50
    vertex 0.103159 -0.0994898 50
    vertex 0.0560741 -0.0559149 50
  endloop
endfacet
facet normal 0 -0 -1
  outer loop
    vertex 0.511734 -0.201807 50
    vertex 0.773354 -0.309504 50
    vertex 0.496754 -0.58956 50
  endloop
endfacet
facet normal -0 0 -1
  outer loop
    vertex 1.38796 0 50
    vertex 1.17245 -0.475649 50
    vertex 0.950444 0 50
  endloop
endfacet
facet normal 0 0 -1
  outer loop
    vertex 0 -1.38796 50
    vertex 0 -0.950444 50
    vertex 0.455511 -1.1692 50
  endloop
endfacet
facet normal 0 0 -1
  outer loop
    vertex 0 -0.637688 50
    vertex 0 -0.414115 50
    vertex 0.192572 -0.483427 50
  endloop
endfacet
facet normal -0 0 -1
  outer loop
    vertex 0.637688 0 50
    vertex 0.511734 -0.201807 50
    vertex 0.414115 0 50
  endloop
endfacet
facet normal 0 0 -1
  outer loop
    vertex 0.103159 -0.0994898 50
    vertex 0.180093 -0.0597699 50
    vertex 0.22287 -0.13959 50
  endloop
endfacet
facet normal 0 0 -1
  outer loop
    vertex 0.332297 -0.301278 50
    vertex 0.511734 -0.201807 50
    vertex 0.496754 -0.58956 50
  endloop
endfacet
facet normal 0 -0 -1
  outer loop
    vertex 0.414115 0 50
    vertex 0.511734 -0.201807 50
    vertex 0.347063 -0.128535 50
  endloop
endfacet
facet normal 0 0 -1
  outer loop
    vertex 0 -0.414115 50
    vertex 0.0864961 -0.334205 50
    vertex 0.192572 -0.483427 50
  endloop
endfacet
facet normal 0 0 -1
  outer loop
    vertex 0.455511 -1.1692 50
    vertex 0.234423 -0.768999 50
    vertex 0.496754 -0.58956 50
  endloop
endfacet
facet normal 0 -0 -1
  outer loop
    vertex 0.950444 0 50
    vertex 1.17245 -0.475649 50
    vertex 0.773354 -0.309504 50
  endloop
endfacet
facet normal 0 0 -1
  outer loop
    vertex 0 -0.950444 50
    vertex 0.234423 -0.768999 50
    vertex 0.455511 -1.1692 50
  endloop
endfacet
facet normal -0 0 -1
  outer loop
    vertex 0.254296 0 50
    vertex 0.180093 -0.0597699 50
    vertex 0.140049 0 50
  endloop
endfacet
facet normal 0 0 -1
  outer loop
    vertex 0 -0.140049 50
    vertex 0.103159 -0.0994898 50
    vertex 0.0998901 -0.211004 50
  endloop
endfacet
facet normal 0 0 -1
  outer loop
    vertex 0.332297 -0.301278 50
    vertex 0.347063 -0.128535 50
    vertex 0.511734 -0.201807 50
  endloop
endfacet
facet normal 0 0 -1
  outer loop
    vertex 0 -0.254296 50
    vertex 0 -0.140049 50
    vertex 0.0998901 -0.211004 50
  endloop
endfacet
facet normal 0 0 -1
  outer loop
    vertex 0.794066 -0.794066 50
    vertex 0.496754 -0.58956 50
    vertex 0.773354 -0.309504 50
  endloop
endfacet
facet normal -0 0 -1
  outer loop
    vertex 0.332297 -0.301278 50
    vertex 0.192572 -0.483427 50
    vertex 0.186816 -0.298397 50
  endloop
endfacet
facet normal 0 0 -1
  outer loop
    vertex 0.332297 -0.301278 50
    vertex 0.186816 -0.298397 50
    vertex 0.22287 -0.13959 50
  endloop
endfacet
facet normal 0 0 -1
  outer loop
    vertex 1.41421 -1.41421 50
    vertex 1.17245 -0.475649 50
    vertex 1.49366 -0.472466 50
  endloop
endfacet
facet normal -0 0 -1
  outer loop
    vertex 1.41421 -1.41421 50
    vertex 0.467431 -1.49284 50
    vertex 0.455511 -1.1692 50
  endloop
endfacet
facet normal 0 0 -1
  outer loop
    vertex 1.41421 -1.41421 50
    vertex 0.794066 -0.794066 50
    vertex 1.17245 -0.475649 50
  endloop
endfacet
facet normal 0 0 -1
  outer loop
    vertex 1.41421 -1.41421 50
    vertex 0.455511 -1.1692 50
    vertex 0.794066 -0.794066 50
  endloop
endfacet
facet normal -0 0 -1
  outer loop
    vertex 0.414115 0 50
    vertex 0.347063 -0.128535 50
    vertex 0.254296 0 50
  endloop
endfacet
facet normal -0 0 -1
  outer loop
    vertex 0.950444 0 50
    vertex 0.773354 -0.309504 50
    vertex 0.637688 0 50
  endloop
endfacet
facet normal 0 0 -1
  outer loop
    vertex 0 -0.950444 50
    vertex 0 -0.637688 50
    vertex 0.234423 -0.768999 50
  endloop
endfacet
facet normal 0 0 -1
  outer loop
    vertex 0 -0.414115 50
    vertex 0 -0.254296 50
    vertex 0.0864961 -0.334205 50
  endloop
endfacet
facet normal 0 -0 -1
  outer loop
    vertex 0.140049 0 50
    vertex 0.180093 -0.0597699 50
    vertex 0.103159 -0.0994898 50
  endloop
endfacet
facet normal 0 0 -1
  outer loop
    vertex 0.794066 -0.794066 50
    vertex 0.773354 -0.309504 50
    vertex 1.17245 -0.475649 50
  endloop
endfacet
facet normal 0 0 -1
  outer loop
    vertex 0.186816 -0.298397 50
    vertex 0.0998901 -0.211004 50
    vertex 0.22287 -0.13959 50
  endloop
endfacet
facet normal -0 0 -1
  outer loop
    vertex 2 0 50
    vertex 1.49366 -0.472466 50
    vertex 1.38796 0 50
  endloop
endfacet
facet normal 0 0 -1
  outer loop
    vertex 0 -2 50
    vertex 0 -1.38796 50
    vertex 0.467431 -1.49284 50
  endloop
endfacet
facet normal 0 0 -1
  outer loop
    vertex 0.254296 0 50
    vertex 0.22287 -0.13959 50
    vertex 0.180093 -0.0597699 50
  endloop
endfacet
facet normal 0 -0 -1
  outer loop
    vertex 0.332297 -0.301278 50
    vertex 0.496754 -0.58956 50
    vertex 0.192572 -0.483427 50
  endloop
endfacet
facet normal 0 0 -1
  outer loop
    vertex 0 -0.254296 50
    vertex 0.0998901 -0.211004 50
    vertex 0.0864961 -0.334205 50
  endloop
endfacet
facet normal 0 -0 -1
  outer loop
    vertex 0.637688 0 50
    vertex 0.773354 -0.309504 50
    vertex 0.511734 -0.201807 50
  endloop
endfacet
facet normal 0 0 -1
  outer loop
    vertex 0 -0.637688 50
    vertex 0.192572 -0.483427 50
    vertex 0.234423 -0.768999 50
  endloop
endfacet
facet normal 0 0 -1
  outer loop
    vertex 0.192572 -0.483427 50
    vertex 0.496754 -0.58956 50
    vertex 0.234423 -0.768999 50
  endloop
endfacet
facet normal 0 -0 -1
  outer loop
    vertex 0.254296 0 50
    vertex 0.347063 -0.128535 50
    vertex 0.22287 -0.13959 50
  endloop
endfacet
facet normal -0 0 -1
  outer loop
    vertex 0.794066 -0.794066 50
    vertex 0.455511 -1.1692 50
    vertex 0.496754 -0.58956 50
  endloop
endfacet
facet normal 0 -0 -1
  outer loop
    vertex 1.38796 0 50
    vertex 1.49366 -0.472466 50
    vertex 1.17245 -0.475649 50
  endloop
endfacet
facet normal 0 0 -1
  outer loop
    vertex 0 -1.38796 50
    vertex 0.455511 -1.1692 50
    vertex 0.467431 -1.49284 50
  endloop
endfacet
facet normal -0 0 -1
  outer loop
    vertex 0.186816 -0.298397 50
    vertex 0.0864961 -0.334205 50
    vertex 0.0998901 -0.211004 50
  endloop
endfacet
facet normal 0 0 -1
  outer loop
    vertex 0 -2 50
    vertex 0.467431 -1.49284 50
    vertex 1.41421 -1.41421 50
  endloop
endfacet
facet normal 0 0 -1
  outer loop
    vertex 2 0 50
    vertex 1.41421 -1.41421 50
    vertex 1.49366 -0.472466 50
  endloop
endfacet
facet normal 0 0 -1
  outer loop
    vertex 0.140049 0 50
    vertex 0.0583805 0 50
    vertex 0.0559149 0.0560741 50
  endloop
endfacet
facet normal 0 0 -1
  outer loop
    vertex 0 0.140049 50
    vertex 0.0559149 0.0560741 50
    vertex 0 0.0583805 50
  endloop
endfacet
facet normal 0 0 -1
  outer loop
    vertex 0.298397 0.186816 50
    vertex 0.483427 0.192572 50
    vertex 0.334205 0.0864961 50
  endloop
endfacet
facet normal 0 0 -1
  outer loop
    vertex 0 0 50
    vertex 0.0559149 0.0560741 50
    vertex 0.0583805 0 50
  endloop
endfacet
facet normal 0 0 -1
  outer loop
    vertex 0 0 50
    vertex 0 0.0583805 50
    vertex 0.0559149 0.0560741 50
  endloop
endfacet
facet normal 0 0 -1
  outer loop
    vertex 0.0994898 0.103159 50
    vertex 0.13959 0.22287 50
    vertex 0.211004 0.0998901 50
  endloop
endfacet
facet normal -0 0 -1
  outer loop
    vertex 0.301278 0.332297 50
    vertex 0.13959 0.22287 50
    vertex 0.128535 0.347063 50
  endloop
endfacet
facet normal 0 0 -1
  outer loop
    vertex 0.140049 0 50
    vertex 0.0559149 0.0560741 50
    vertex 0.0994898 0.103159 50
  endloop
endfacet
facet normal 0 0 -1
  outer loop
    vertex 0 0.140049 50
    vertex 0.0994898 0.103159 50
    vertex 0.0559149 0.0560741 50
  endloop
endfacet
facet normal 0 0 -1
  outer loop
    vertex 0.201807 0.511734 50
    vertex 0.309504 0.773354 50
    vertex 0.58956 0.496754 50
  endloop
endfacet
facet normal 0 0 -1
  outer loop
    vertex 0 1.38796 50
    vertex 0.475649 1.17245 50
    vertex 0 0.950444 50
  endloop
endfacet
facet normal 0 0 -1
  outer loop
    vertex 1.38796 0 50
    vertex 0.950444 0 50
    vertex 1.1692 0.455511 50
  endloop
endfacet
facet normal 0 0 -1
  outer loop
    vertex 0.637688 0 50
    vertex 0.414115 0 50
    vertex 0.483427 0.192572 50
  endloop
endfacet
facet normal 0 0 -1
  outer loop
    vertex 0 0.637688 50
    vertex 0.201807 0.511734 50
    vertex 0 0.414115 50
  endloop
endfacet
facet normal 0 0 -1
  outer loop
    vertex 0.0994898 0.103159 50
    vertex 0.0597699 0.180093 50
    vertex 0.13959 0.22287 50
  endloop
endfacet
facet normal 0 0 -1
  outer loop
    vertex 0.301278 0.332297 50
    vertex 0.201807 0.511734 50
    vertex 0.58956 0.496754 50
  endloop
endfacet
facet normal 0 0 -1
  outer loop
    vertex 0 0.414115 50
    vertex 0.201807 0.511734 50
    vertex 0.128535 0.347063 50
  endloop
endfacet
facet normal 0 0 -1
  outer loop
    vertex 0.414115 0 50
    vertex 0.334205 0.0864961 50
    vertex 0.483427 0.192572 50
  endloop
endfacet
facet normal -0 0 -1
  outer loop
    vertex 1.1692 0.455511 50
    vertex 0.768999 0.234423 50
    vertex 0.58956 0.496754 50
  endloop
endfacet
facet normal 0 0 -1
  outer loop
    vertex 0 0.950444 50
    vertex 0.475649 1.17245 50
    vertex 0.309504 0.773354 50
  endloop
endfacet
facet normal 0 0 -1
  outer loop
    vertex 0.950444 0 50
    vertex 0.768999 0.234423 50
    vertex 1.1692 0.455511 50
  endloop
endfacet
facet normal 0 0 -1
  outer loop
    vertex 0 0.254296 50
    vertex 0.0597699 0.180093 50
    vertex 0 0.140049 50
  endloop
endfacet
facet normal 0 0 -1
  outer loop
    vertex 0.140049 0 50
    vertex 0.0994898 0.103159 50
    vertex 0.211004 0.0998901 50
  endloop
endfacet
facet normal 0 0 -1
  outer loop
    vertex 0.301278 0.332297 50
    vertex 0.128535 0.347063 50
    vertex 0.201807 0.511734 50
  endloop
endfacet
facet normal 0 0 -1
  outer loop
    vertex 0.254296 0 50
    vertex 0.140049 0 50
    vertex 0.211004 0.0998901 50
  endloop
endfacet
facet normal 0 0 -1
  outer loop
    vertex 0.794066 0.794066 50
    vertex 0.58956 0.496754 50
    vertex 0.309504 0.773354 50
  endloop
endfacet
facet normal 0 -0 -1
  outer loop
    vertex 0.301278 0.332297 50
    vertex 0.483427 0.192572 50
    vertex 0.298397 0.186816 50
  endloop
endfacet
facet normal 0 0 -1
  outer loop
    vertex 0.301278 0.332297 50
    vertex 0.298397 0.186816 50
    vertex 0.13959 0.22287 50
  endloop
endfacet
facet normal -0 0 -1
  outer loop
    vertex 1.41421 1.41421 50
    vertex 0.475649 1.17245 50
    vertex 0.472466 1.49366 50
  endloop
endfacet
facet normal 0 -0 -1
  outer loop
    vertex 1.41421 1.41421 50
    vertex 1.49284 0.467431 50
    vertex 1.1692 0.455511 50
  endloop
endfacet
facet normal 0 0 -1
  outer loop
    vertex 1.41421 1.41421 50
    vertex 0.794066 0.794066 50
    vertex 0.475649 1.17245 50
  endloop
endfacet
facet normal 0 0 -1
  outer loop
    vertex 1.41421 1.41421 50
    vertex 1.1692 0.455511 50
    vertex 0.794066 0.794066 50
  endloop
endfacet
facet normal 0 0 -1
  outer loop
    vertex 0 0.414115 50
    vertex 0.128535 0.347063 50
    vertex 0 0.254296 50
  endloop
endfacet
facet normal 0 0 -1
  outer loop
    vertex 0 0.950444 50
    vertex 0.309504 0.773354 50
    vertex 0 0.637688 50
  endloop
endfacet
facet normal 0 0 -1
  outer loop
    vertex 0.950444 0 50
    vertex 0.637688 0 50
    vertex 0.768999 0.234423 50
  endloop
endfacet
facet normal 0 0 -1
  outer loop
    vertex 0.414115 0 50
    vertex 0.254296 0 50
    vertex 0.334205 0.0864961 50
  endloop
endfacet
facet normal 0 0 -1
  outer loop
    vertex 0 0.140049 50
    vertex 0.0597699 0.180093 50
    vertex 0.0994898 0.103159 50
  endloop
endfacet
facet normal -0 0 -1
  outer loop
    vertex 0.794066 0.794066 50
    vertex 0.309504 0.773354 50
    vertex 0.475649 1.17245 50
  endloop
endfacet
facet normal -0 0 -1
  outer loop
    vertex 0.298397 0.186816 50
    vertex 0.211004 0.0998901 50
    vertex 0.13959 0.22287 50
  endloop
endfacet
facet normal 0 0 -1
  outer loop
    vertex 0 2 50
    vertex 0.472466 1.49366 50
    vertex 0 1.38796 50
  endloop
endfacet
facet normal 0 0 -1
  outer loop
    vertex 2 0 50
    vertex 1.38796 0 50
    vertex 1.49284 0.467431 50
  endloop
endfacet
facet normal 0 0 -1
  outer loop
    vertex 0 0.254296 50
    vertex 0.13959 0.22287 50
    vertex 0.0597699 0.180093 50
  endloop
endfacet
facet normal 0 0 -1
  outer loop
    vertex 0.301278 0.332297 50
    vertex 0.58956 0.496754 50
    vertex 0.483427 0.192572 50
  endloop
endfacet
facet normal 0 0 -1
  outer loop
    vertex 0.254296 0 50
    vertex 0.211004 0.0998901 50
    vertex 0.334205 0.0864961 50
  endloop
endfacet
facet normal 0 0 -1
  outer loop
    vertex 0 0.637688 50
    vertex 0.309504 0.773354 50
    vertex 0.201807 0.511734 50
  endloop
endfacet
facet normal 0 0 -1
  outer loop
    vertex 0.637688 0 50
    vertex 0.483427 0.192572 50
    vertex 0.768999 0.234423 50
  endloop
endfacet
facet normal 0 0 -1
  outer loop
    vertex 0.483427 0.192572 50
    vertex 0.58956 0.496754 50
    vertex 0.768999 0.234423 50
  endloop
endfacet
facet normal 0 0 -1
  outer loop
    vertex 0 0.254296 50
    vertex 0.128535 0.347063 50
    vertex 0.13959 0.22287 50
  endloop
endfacet
facet normal 0 -0 -1
  outer loop
    vertex 0.794066 0.794066 50
    vertex 1.1692 0.455511 50
    vertex 0.58956 0.496754 50
  endloop
endfacet
facet normal 0 0 -1
  outer loop
    vertex 0 1.38796 50
    vertex 0.472466 1.49366 50
    vertex 0.475649 1.17245 50
  endloop
endfacet
facet normal 0 0 -1
  outer loop
    vertex 1.38796 0 50
    vertex 1.1692 0.455511 50
    vertex 1.49284 0.467431 50
  endloop
endfacet
facet normal 0 -0 -1
  outer loop
    vertex 0.298397 0.186816 50
    vertex 0.334205 0.0864961 50
    vertex 0.211004 0.0998901 50
  endloop
endfacet
facet normal 0 0 -1
  outer loop
    vertex 0 2 50
    vertex 1.41421 1.41421 50
    vertex 0.472466 1.49366 50
  endloop
endfacet
facet normal 0 0 -1
  outer loop
    vertex 2 0 50
    vertex 1.49284 0.467431 50
    vertex 1.41421 1.41421 50
  endloop
endfacet
facet normal 0 0 -1
  outer loop
    vertex -0.140049 0 50
    vertex -0.0559149 0.0560741 50
    vertex -0.0583805 0 50
  endloop
endfacet
facet normal 0 -0 -1
  outer loop
    vertex 0 0.140049 50
    vertex 0 0.0583805 50
    vertex -0.0559149 0.0560741 50
  endloop
endfacet
facet normal -0 0 -1
  outer loop
    vertex -0.298397 0.186816 50
    vertex -0.334205 0.0864961 50
    vertex -0.483427 0.192572 50
  endloop
endfacet
facet normal 0 0 -1
  outer loop
    vertex 0 0 50
    vertex -0.0583805 0 50
    vertex -0.0559149 0.0560741 50
  endloop
endfacet
facet normal 0 0 -1
  outer loop
    vertex 0 0 50
    vertex -0.0559149 0.0560741 50
    vertex 0 0.0583805 50
  endloop
endfacet
facet normal -0 0 -1
  outer loop
    vertex -0.0994898 0.103159 50
    vertex -0.211004 0.0998901 50
    vertex -0.13959 0.22287 50
  endloop
endfacet
facet normal 0 0 -1
  outer loop
    vertex -0.301278 0.332297 50
    vertex -0.128535 0.347063 50
    vertex -0.13959 0.22287 50
  endloop
endfacet
facet normal 0 0 -1
  outer loop
    vertex -0.140049 0 50
    vertex -0.0994898 0.103159 50
    vertex -0.0559149 0.0560741 50
  endloop
endfacet
facet normal 0 0 -1
  outer loop
    vertex 0 0.140049 50
    vertex -0.0559149 0.0560741 50
    vertex -0.0994898 0.103159 50
  endloop
endfacet
facet normal -0 0 -1
  outer loop
    vertex -0.201807 0.511734 50
    vertex -0.58956 0.496754 50
    vertex -0.309504 0.773354 50
  endloop
endfacet
facet normal 0 0 -1
  outer loop
    vertex -1.38796 0 50
    vertex -1.1692 0.455511 50
    vertex -0.950444 0 50
  endloop
endfacet
facet normal 0 -0 -1
  outer loop
    vertex 0 1.38796 50
    vertex 0 0.950444 50
    vertex -0.475649 1.17245 50
  endloop
endfacet
facet normal 0 0 -1
  outer loop
    vertex -0.637688 0 50
    vertex -0.483427 0.192572 50
    vertex -0.414115 0 50
  endloop
endfacet
facet normal 0 -0 -1
  outer loop
    vertex 0 0.637688 50
    vertex 0 0.414115 50
    vertex -0.201807 0.511734 50
  endloop
endfacet
facet normal 0 0 -1
  outer loop
    vertex -0.0994898 0.103159 50
    vertex -0.13959 0.22287 50
    vertex -0.0597699 0.180093 50
  endloop
endfacet
facet normal 0 0 -1
  outer loop
    vertex -0.301278 0.332297 50
    vertex -0.58956 0.496754 50
    vertex -0.201807 0.511734 50
  endloop
endfacet
facet normal -0 0 -1
  outer loop
    vertex 0 0.414115 50
    vertex -0.128535 0.347063 50
    vertex -0.201807 0.511734 50
  endloop
endfacet
facet normal 0 0 -1
  outer loop
    vertex -0.414115 0 50
    vertex -0.483427 0.192572 50
    vertex -0.334205 0.0864961 50
  endloop
endfacet
facet normal 0 0 -1
  outer loop
    vertex -1.1692 0.455511 50
    vertex -0.58956 0.496754 50
    vertex -0.768999 0.234423 50
  endloop
endfacet
facet normal 0 0 -1
  outer loop
    vertex -0.950444 0 50
    vertex -1.1692 0.455511 50
    vertex -0.768999 0.234423 50
  endloop
endfacet
facet normal -0 0 -1
  outer loop
    vertex 0 0.950444 50
    vertex -0.309504 0.773354 50
    vertex -0.475649 1.17245 50
  endloop
endfacet
facet normal 0 -0 -1
  outer loop
    vertex 0 0.254296 50
    vertex 0 0.140049 50
    vertex -0.0597699 0.180093 50
  endloop
endfacet
facet normal 0 0 -1
  outer loop
    vertex -0.140049 0 50
    vertex -0.211004 0.0998901 50
    vertex -0.0994898 0.103159 50
  endloop
endfacet
facet normal 0 0 -1
  outer loop
    vertex -0.301278 0.332297 50
    vertex -0.201807 0.511734 50
    vertex -0.128535 0.347063 50
  endloop
endfacet
facet normal 0 0 -1
  outer loop
    vertex -0.254296 0 50
    vertex -0.211004 0.0998901 50
    vertex -0.140049 0 50
  endloop
endfacet
facet normal 0 0 -1
  outer loop
    vertex -0.794066 0.794066 50
    vertex -0.309504 0.773354 50
    vertex -0.58956 0.496754 50
  endloop
endfacet
facet normal 0 -0 -1
  outer loop
    vertex -0.301278 0.332297 50
    vertex -0.298397 0.186816 50
    vertex -0.483427 0.192572 50
  endloop
endfacet
facet normal 0 0 -1
  outer loop
    vertex -0.301278 0.332297 50
    vertex -0.13959 0.22287 50
    vertex -0.298397 0.186816 50
  endloop
endfacet
facet normal 0 -0 -1
  outer loop
    vertex -1.41421 1.41421 50
    vertex -1.1692 0.455511 50
    vertex -1.49284 0.467431 50
  endloop
endfacet
facet normal 0 0 -1
  outer loop
    vertex -1.41421 1.41421 50
    vertex -0.472466 1.49366 50
    vertex -0.475649 1.17245 50
  endloop
endfacet
facet normal 0 0 -1
  outer loop
    vertex -1.41421 1.41421 50
    vertex -0.794066 0.794066 50
    vertex -1.1692 0.455511 50
  endloop
endfacet
facet normal 0 0 -1
  outer loop
    vertex -1.41421 1.41421 50
    vertex -0.475649 1.17245 50
    vertex -0.794066 0.794066 50
  endloop
endfacet
facet normal 0 -0 -1
  outer loop
    vertex 0 0.414115 50
    vertex 0 0.254296 50
    vertex -0.128535 0.347063 50
  endloop
endfacet
facet normal 0 0 -1
  outer loop
    vertex -0.950444 0 50
    vertex -0.768999 0.234423 50
    vertex -0.637688 0 50
  endloop
endfacet
facet normal 0 -0 -1
  outer loop
    vertex 0 0.950444 50
    vertex 0 0.637688 50
    vertex -0.309504 0.773354 50
  endloop
endfacet
facet normal 0 0 -1
  outer loop
    vertex -0.414115 0 50
    vertex -0.334205 0.0864961 50
    vertex -0.254296 0 50
  endloop
endfacet
facet normal -0 0 -1
  outer loop
    vertex 0 0.140049 50
    vertex -0.0994898 0.103159 50
    vertex -0.0597699 0.180093 50
  endloop
endfacet
facet normal 0 0 -1
  outer loop
    vertex -0.794066 0.794066 50
    vertex -0.475649 1.17245 50
    vertex -0.309504 0.773354 50
  endloop
endfacet
facet normal 0 0 -1
  outer loop
    vertex -0.298397 0.186816 50
    vertex -0.13959 0.22287 50
    vertex -0.211004 0.0998901 50
  endloop
endfacet
facet normal 0 0 -1
  outer loop
    vertex -2 0 50
    vertex -1.49284 0.467431 50
    vertex -1.38796 0 50
  endloop
endfacet
facet normal 0 -0 -1
  outer loop
    vertex 0 2 50
    vertex 0 1.38796 50
    vertex -0.472466 1.49366 50
  endloop
endfacet
facet normal 0 0 -1
  outer loop
    vertex 0 0.254296 50
    vertex -0.0597699 0.180093 50
    vertex -0.13959 0.22287 50
  endloop
endfacet
facet normal -0 0 -1
  outer loop
    vertex -0.301278 0.332297 50
    vertex -0.483427 0.192572 50
    vertex -0.58956 0.496754 50
  endloop
endfacet
facet normal 0 0 -1
  outer loop
    vertex -0.254296 0 50
    vertex -0.334205 0.0864961 50
    vertex -0.211004 0.0998901 50
  endloop
endfacet
facet normal 0 0 -1
  outer loop
    vertex -0.637688 0 50
    vertex -0.768999 0.234423 50
    vertex -0.483427 0.192572 50
  endloop
endfacet
facet normal -0 0 -1
  outer loop
    vertex 0 0.637688 50
    vertex -0.201807 0.511734 50
    vertex -0.309504 0.773354 50
  endloop
endfacet
facet normal 0 0 -1
  outer loop
    vertex -0.483427 0.192572 50
    vertex -0.768999 0.234423 50
    vertex -0.58956 0.496754 50
  endloop
endfacet
facet normal -0 0 -1
  outer loop
    vertex 0 0.254296 50
    vertex -0.13959 0.22287 50
    vertex -0.128535 0.347063 50
  endloop
endfacet
facet normal 0 -0 -1
  outer loop
    vertex -0.794066 0.794066 50
    vertex -0.58956 0.496754 50
    vertex -1.1692 0.455511 50
  endloop
endfacet
facet normal 0 0 -1
  outer loop
    vertex -1.38796 0 50
    vertex -1.49284 0.467431 50
    vertex -1.1692 0.455511 50
  endloop
endfacet
facet normal -0 0 -1
  outer loop
    vertex 0 1.38796 50
    vertex -0.475649 1.17245 50
    vertex -0.472466 1.49366 50
  endloop
endfacet
facet normal 0 -0 -1
  outer loop
    vertex -0.298397 0.186816 50
    vertex -0.211004 0.0998901 50
    vertex -0.334205 0.0864961 50
  endloop
endfacet
facet normal 0 0 -1
  outer loop
    vertex -2 0 50
    vertex -1.41421 1.41421 50
    vertex -1.49284 0.467431 50
  endloop
endfacet
facet normal 0 0 -1
  outer loop
    vertex 0 2 50
    vertex -0.472466 1.49366 50
    vertex -1.41421 1.41421 50
  endloop
endfacet
facet normal 0 0 -1
  outer loop
    vertex -1.41421 -1.41421 0
    vertex -2 0 0
    vertex 0 0 0
  endloop
endfacet
facet normal 0 0 -1
  outer loop
    vertex 0 -2 0
    vertex -1.41421 -1.41421 0
    vertex 0 0 0
  endloop
endfacet
facet normal 0 0 -1
  outer loop
    vertex 0 -2 0
    vertex 0 0 0
    vertex 1.41421 -1.41421 0
  endloop
endfacet
facet normal 0 0 -1
  outer loop
    vertex 1.41421 -1.41421 0
    vertex 0 0 0
    vertex 2 0 0
  endloop
endfacet
facet normal 0 0 -1
  outer loop
    vertex 0 0 0
    vertex 1.41421 1.41421 0
    vertex 2 0 0
  endloop
endfacet
facet normal 0 0 -1
  outer loop
    vertex 0 0 0
    vertex 0 2 0
    vertex 1.41421 1.41421 0
  endloop
endfacet
facet normal 0 0 -1
  outer loop
    vertex 0 0 0
    vertex -1.41421 1.41421 0
    vertex 0 2 0
  endloop
endfacet
facet normal 0 0 -1
  outer loop
    vertex -2 0 0
    vertex -1.41421 1.41421 0
    vertex 0 0 0
  endloop
endfacet
endsolid Created by Gmsh
