solid Created by Gmsh
facet normal -0.707107 -0.707107 0
  outer loop
    vertex 0 -1 28
    vertex 0 -1 30
    vertex -1 0 28
  endloop
endfacet
facet normal -0.707107 -0.707107 0
  outer loop
    vertex 0 -1 26
    vertex -1 0 28
    vertex -1 0 26
  endloop
endfacet
facet normal -0.707107 -0.707107 0
  outer loop
    vertex 0 -1 26
    vertex 0 -1 28
    vertex -1 0 28
  endloop
endfacet
facet normal -0.707107 -0.707107 -0
  outer loop
    vertex -1 0 30
    vertex -1 0 28
    vertex 0 -1 30
  endloop
endfacet
facet normal -0.707107 -0.707107 0
  outer loop
    vertex 0 -1 32
    vertex 0 -1 34
    vertex -1 0 32
  endloop
endfacet
facet normal -0.707107 -0.707107 0
  outer loop
    vertex 0 -1 30
    vertex -1 0 32
    vertex -1 0 30
  endloop
endfacet
facet normal -0.707107 -0.707107 0
  outer loop
    vertex 0 -1 30
    vertex 0 -1 32
    vertex -1 0 32
  endloop
endfacet
facet normal -0.707107 -0.707107 -0
  outer loop
    vertex -1 0 34
    vertex -1 0 32
    vertex 0 -1 34
  endloop
endfacet
facet normal -0.707107 -0.707107 0
  outer loop
    vertex -1 0 18
    vertex 0 -1 18
    vertex -1 0 20
  endloop
endfacet
facet normal -0.707107 -0.707107 -0
  outer loop
    vertex -1 0 6
    vertex -1 0 4
    vertex 0 -1 6
  endloop
endfacet
facet normal -0.707107 -0.707107 0
  outer loop
    vertex 0 -1 36
    vertex 0 -1 38
    vertex -1 0 36
  endloop
endfacet
facet normal -0.707107 -0.707107 0
  outer loop
    vertex 0 -1 34
    vertex -1 0 36
    vertex -1 0 34
  endloop
endfacet
facet normal -0.707107 -0.707107 0
  outer loop
    vertex 0 -1 34
    vertex 0 -1 36
    vertex -1 0 36
  endloop
endfacet
facet normal -0.707107 -0.707107 0
  outer loop
    vertex -1 0 20
    vertex 0 -1 18
    vertex 0 -1 20
  endloop
endfacet
facet normal -0.707107 -0.707107 0
  outer loop
    vertex -1 0 16
    vertex 0 -1 18
    vertex -1 0 18
  endloop
endfacet
facet normal -0.707107 -0.707107 0
  outer loop
    vertex 0 -1 16
    vertex 0 -1 18
    vertex -1 0 16
  endloop
endfacet
facet normal -0.707107 -0.707107 -0
  outer loop
    vertex -1 0 38
    vertex -1 0 36
    vertex 0 -1 38
  endloop
endfacet
facet normal -0.707107 -0.707107 0
  outer loop
    vertex 0 -1 38
    vertex 0 -1 40
    vertex -1 0 38
  endloop
endfacet
facet normal -0.707107 -0.707107 0
  outer loop
    vertex -1 0 10
    vertex 0 -1 10
    vertex -1 0 12
  endloop
endfacet
facet normal -0.707107 -0.707107 0
  outer loop
    vertex 0 -1 8
    vertex 0 -1 10
    vertex -1 0 10
  endloop
endfacet
facet normal -0.707107 -0.707107 0
  outer loop
    vertex -1 0 8
    vertex 0 -1 8
    vertex -1 0 10
  endloop
endfacet
facet normal -0.707107 -0.707107 0
  outer loop
    vertex -1 0 6
    vertex 0 -1 8
    vertex -1 0 8
  endloop
endfacet
facet normal -0.707107 -0.707107 0
  outer loop
    vertex -1 0 6
    vertex 0 -1 6
    vertex 0 -1 8
  endloop
endfacet
facet normal -0.707107 -0.707107 -0
  outer loop
    vertex 0 -1 6
    vertex -1 0 4
    vertex 0 -1 4
  endloop
endfacet
facet normal -0.707107 -0.707107 0
  outer loop
    vertex 0 -1 2
    vertex -1 0 4
    vertex -1 0 2
  endloop
endfacet
facet normal -0.707107 -0.707107 0
  outer loop
    vertex 0 -1 2
    vertex 0 -1 4
    vertex -1 0 4
  endloop
endfacet
facet normal -0.707107 -0.707107 0
  outer loop
    vertex -1 0 12
    vertex 0 -1 10
    vertex 0 -1 12
  endloop
endfacet
facet normal -0.707107 -0.707107 0
  outer loop
    vertex -1 0 20
    vertex 0 -1 22
    vertex -1 0 22
  endloop
endfacet
facet normal -0.707107 -0.707107 0
  outer loop
    vertex -1 0 20
    vertex 0 -1 20
    vertex 0 -1 22
  endloop
endfacet
facet normal -0.707107 -0.707107 0
  outer loop
    vertex -1 0 14
    vertex 0 -1 16
    vertex -1 0 16
  endloop
endfacet
facet normal -0.707107 -0.707107 0
  outer loop
    vertex 0 -1 14
    vertex 0 -1 16
    vertex -1 0 14
  endloop
endfacet
facet normal -0.707107 -0.707107 -0
  outer loop
    vertex -1 0 40
    vertex -1 0 38
    vertex 0 -1 40
  endloop
endfacet
facet normal -0.707107 -0.707107 0
  outer loop
    vertex 0 -1 40
    vertex 0 -1 42
    vertex -1 0 40
  endloop
endfacet
facet normal -0.707107 -0.707107 0
  outer loop
    vertex -1 0 22
    vertex 0 -1 24
    vertex -1 0 24
  endloop
endfacet
facet normal -0.707107 -0.707107 0
  outer loop
    vertex -1 0 22
    vertex 0 -1 22
    vertex 0 -1 24
  endloop
endfacet
facet normal -0.707107 -0.707107 -0
  outer loop
    vertex -1 0 42
    vertex -1 0 40
    vertex 0 -1 42
  endloop
endfacet
facet normal -0.707107 -0.707107 -0
  outer loop
    vertex -1 0 44
    vertex -1 0 42
    vertex 0 -1 42
  endloop
endfacet
facet normal -0.707107 -0.707107 0
  outer loop
    vertex 0 -1 42
    vertex 0 -1 44
    vertex -1 0 44
  endloop
endfacet
facet normal -0.707107 -0.707107 0
  outer loop
    vertex -1 0 24
    vertex 0 -1 26
    vertex -1 0 26
  endloop
endfacet
facet normal -0.707107 -0.707107 0
  outer loop
    vertex 0 -1 24
    vertex 0 -1 26
    vertex -1 0 24
  endloop
endfacet
facet normal -0.707107 -0.707107 -0
  outer loop
    vertex -1 0 46
    vertex -1 0 44
    vertex 0 -1 44
  endloop
endfacet
facet normal -0.707107 -0.707107 0
  outer loop
    vertex 0 -1 44
    vertex 0 -1 46
    vertex -1 0 46
  endloop
endfacet
facet normal -0.707107 -0.707107 -0
  outer loop
    vertex -1 0 48
    vertex -1 0 46
    vertex 0 -1 46
  endloop
endfacet
facet normal -0.707107 -0.707107 0
  outer loop
    vertex 0 -1 46
    vertex 0 -1 48
    vertex -1 0 48
  endloop
endfacet
facet normal -0.707107 -0.707107 0
  outer loop
    vertex -1 0 12
    vertex 0 -1 14
    vertex -1 0 14
  endloop
endfacet
facet normal -0.707107 -0.707107 0
  outer loop
    vertex 0 -1 12
    vertex 0 -1 14
    vertex -1 0 12
  endloop
endfacet
facet normal -0.92388 -0.382683 0
  outer loop
    vertex -1 0 48
    vertex -0.707107 -0.707107 50
    vertex -1 0 50
  endloop
endfacet
facet normal -0.92388 -0.382683 0
  outer loop
    vertex -0.707107 -0.707107 0
    vertex -1 0 2
    vertex -1 0 0
  endloop
endfacet
facet normal -0.382683 -0.92388 0
  outer loop
    vertex -0.707107 -0.707107 50
    vertex 0 -1 48
    vertex 0 -1 50
  endloop
endfacet
facet normal -0.699644 -0.699644 -0.144901
  outer loop
    vertex -1 0 48
    vertex 0 -1 48
    vertex -0.707107 -0.707107 50
  endloop
endfacet
facet normal -0.382683 -0.92388 -0
  outer loop
    vertex 0 -1 2
    vertex -0.707107 -0.707107 0
    vertex 0 -1 0
  endloop
endfacet
facet normal -0.699644 -0.699644 0.144901
  outer loop
    vertex 0 -1 2
    vertex -1 0 2
    vertex -0.707107 -0.707107 0
  endloop
endfacet
facet normal -0.707107 0.707107 0
  outer loop
    vertex -1 0 26
    vertex 0 1 26
    vertex -1 0 24
  endloop
endfacet
facet normal -0.707107 0.707107 0
  outer loop
    vertex -1 0 28
    vertex 0 1 26
    vertex -1 0 26
  endloop
endfacet
facet normal -0.707107 0.707107 0
  outer loop
    vertex 0 1 28
    vertex 0 1 26
    vertex -1 0 28
  endloop
endfacet
facet normal -0.707107 0.707107 0
  outer loop
    vertex -1 0 30
    vertex 0 1 28
    vertex -1 0 28
  endloop
endfacet
facet normal -0.707107 0.707107 0
  outer loop
    vertex 0 1 30
    vertex 0 1 28
    vertex -1 0 30
  endloop
endfacet
facet normal -0.707107 0.707107 0
  outer loop
    vertex 0 1 34
    vertex 0 1 32
    vertex -1 0 32
  endloop
endfacet
facet normal -0.707107 0.707107 0
  outer loop
    vertex 0 1 32
    vertex -1 0 30
    vertex -1 0 32
  endloop
endfacet
facet normal -0.707107 0.707107 0
  outer loop
    vertex 0 1 30
    vertex -1 0 30
    vertex 0 1 32
  endloop
endfacet
facet normal -0.707107 0.707107 0
  outer loop
    vertex -1 0 34
    vertex 0 1 34
    vertex -1 0 32
  endloop
endfacet
facet normal -0.707107 0.707107 0
  outer loop
    vertex -1 0 18
    vertex 0 1 20
    vertex 0 1 18
  endloop
endfacet
facet normal -0.707107 0.707107 0
  outer loop
    vertex -1 0 14
    vertex 0 1 16
    vertex 0 1 14
  endloop
endfacet
facet normal -0.707107 0.707107 0
  outer loop
    vertex 0 1 10
    vertex 0 1 8
    vertex -1 0 8
  endloop
endfacet
facet normal -0.707107 0.707107 0
  outer loop
    vertex 0 1 38
    vertex 0 1 36
    vertex -1 0 36
  endloop
endfacet
facet normal -0.707107 0.707107 0
  outer loop
    vertex -1 0 10
    vertex 0 1 10
    vertex -1 0 8
  endloop
endfacet
facet normal -0.707107 0.707107 0
  outer loop
    vertex -1 0 20
    vertex 0 1 20
    vertex -1 0 18
  endloop
endfacet
facet normal -0.707107 0.707107 0
  outer loop
    vertex -1 0 16
    vertex 0 1 16
    vertex -1 0 14
  endloop
endfacet
facet normal -0.707107 0.707107 0
  outer loop
    vertex -1 0 12
    vertex 0 1 10
    vertex -1 0 10
  endloop
endfacet
facet normal -0.707107 0.707107 0
  outer loop
    vertex -1 0 12
    vertex 0 1 12
    vertex 0 1 10
  endloop
endfacet
facet normal -0.707107 0.707107 0
  outer loop
    vertex -1 0 18
    vertex 0 1 16
    vertex -1 0 16
  endloop
endfacet
facet normal -0.707107 0.707107 0
  outer loop
    vertex -1 0 18
    vertex 0 1 18
    vertex 0 1 16
  endloop
endfacet
facet normal -0.707107 0.707107 0
  outer loop
    vertex -1 0 36
    vertex 0 1 34
    vertex -1 0 34
  endloop
endfacet
facet normal -0.707107 0.707107 0
  outer loop
    vertex 0 1 36
    vertex 0 1 34
    vertex -1 0 36
  endloop
endfacet
facet normal -0.707107 0.707107 0
  outer loop
    vertex -1 0 8
    vertex 0 1 6
    vertex -1 0 6
  endloop
endfacet
facet normal -0.707107 0.707107 0
  outer loop
    vertex -1 0 8
    vertex 0 1 8
    vertex 0 1 6
  endloop
endfacet
facet normal -0.707107 0.707107 0
  outer loop
    vertex -1 0 6
    vertex 0 1 4
    vertex -1 0 4
  endloop
endfacet
facet normal -0.707107 0.707107 0
  outer loop
    vertex 0 1 6
    vertex 0 1 4
    vertex -1 0 6
  endloop
endfacet
facet normal -0.707107 0.707107 0
  outer loop
    vertex -1 0 38
    vertex 0 1 38
    vertex -1 0 36
  endloop
endfacet
facet normal -0.707107 0.707107 0
  outer loop
    vertex 0 1 40
    vertex 0 1 38
    vertex -1 0 38
  endloop
endfacet
facet normal -0.707107 0.707107 0
  outer loop
    vertex -1 0 22
    vertex 0 1 20
    vertex -1 0 20
  endloop
endfacet
facet normal -0.707107 0.707107 0
  outer loop
    vertex 0 1 22
    vertex 0 1 20
    vertex -1 0 22
  endloop
endfacet
facet normal -0.707107 0.707107 0
  outer loop
    vertex -1 0 24
    vertex 0 1 26
    vertex 0 1 24
  endloop
endfacet
facet normal -0.707107 0.707107 0
  outer loop
    vertex -1 0 40
    vertex 0 1 40
    vertex -1 0 38
  endloop
endfacet
facet normal -0.707107 0.707107 0
  outer loop
    vertex 0 1 42
    vertex 0 1 40
    vertex -1 0 40
  endloop
endfacet
facet normal -0.707107 0.707107 0
  outer loop
    vertex -1 0 24
    vertex 0 1 22
    vertex -1 0 22
  endloop
endfacet
facet normal -0.707107 0.707107 0
  outer loop
    vertex 0 1 24
    vertex 0 1 22
    vertex -1 0 24
  endloop
endfacet
facet normal -0.707107 0.707107 0
  outer loop
    vertex -1 0 44
    vertex 0 1 46
    vertex 0 1 44
  endloop
endfacet
facet normal -0.707107 0.707107 0
  outer loop
    vertex -1 0 42
    vertex 0 1 42
    vertex -1 0 40
  endloop
endfacet
facet normal -0.707107 0.707107 0
  outer loop
    vertex -1 0 44
    vertex 0 1 42
    vertex -1 0 42
  endloop
endfacet
facet normal -0.707107 0.707107 0
  outer loop
    vertex -1 0 44
    vertex 0 1 44
    vertex 0 1 42
  endloop
endfacet
facet normal -0.707107 0.707107 0
  outer loop
    vertex -1 0 46
    vertex 0 1 46
    vertex -1 0 44
  endloop
endfacet
facet normal -0.707107 0.707107 0
  outer loop
    vertex -1 0 48
    vertex 0 1 46
    vertex -1 0 46
  endloop
endfacet
facet normal -0.707107 0.707107 0
  outer loop
    vertex -1 0 48
    vertex 0 1 48
    vertex 0 1 46
  endloop
endfacet
facet normal -0.707107 0.707107 0
  outer loop
    vertex 0 1 4
    vertex -1 0 2
    vertex -1 0 4
  endloop
endfacet
facet normal -0.707107 0.707107 0
  outer loop
    vertex 0 1 4
    vertex 0 1 2
    vertex -1 0 2
  endloop
endfacet
facet normal -0.707107 0.707107 0
  outer loop
    vertex -1 0 14
    vertex 0 1 12
    vertex -1 0 12
  endloop
endfacet
facet normal -0.707107 0.707107 0
  outer loop
    vertex -1 0 14
    vertex 0 1 14
    vertex 0 1 12
  endloop
endfacet
facet normal -0.382683 0.92388 0
  outer loop
    vertex 0 1 48
    vertex -0.707107 0.707107 50
    vertex 0 1 50
  endloop
endfacet
facet normal -0.382683 0.92388 0
  outer loop
    vertex -0.707107 0.707107 0
    vertex 0 1 2
    vertex 0 1 0
  endloop
endfacet
facet normal -0.92388 0.382683 0
  outer loop
    vertex -0.707107 0.707107 50
    vertex -1 0 48
    vertex -1 0 50
  endloop
endfacet
facet normal -0.699644 0.699644 -0.144901
  outer loop
    vertex 0 1 48
    vertex -1 0 48
    vertex -0.707107 0.707107 50
  endloop
endfacet
facet normal -0.92388 0.382683 0
  outer loop
    vertex -1 0 2
    vertex -0.707107 0.707107 0
    vertex -1 0 0
  endloop
endfacet
facet normal -0.699644 0.699644 0.144901
  outer loop
    vertex -1 0 2
    vertex 0 1 2
    vertex -0.707107 0.707107 0
  endloop
endfacet
facet normal 0.707107 0.707107 0
  outer loop
    vertex 0 1 26
    vertex 1 0 26
    vertex 0 1 24
  endloop
endfacet
facet normal 0.707107 0.707107 0
  outer loop
    vertex 0 1 28
    vertex 1 0 26
    vertex 0 1 26
  endloop
endfacet
facet normal 0.707107 0.707107 0
  outer loop
    vertex 1 0 28
    vertex 1 0 26
    vertex 0 1 28
  endloop
endfacet
facet normal 0.707107 0.707107 0
  outer loop
    vertex 0 1 30
    vertex 1 0 28
    vertex 0 1 28
  endloop
endfacet
facet normal 0.707107 0.707107 0
  outer loop
    vertex 1 0 30
    vertex 1 0 28
    vertex 0 1 30
  endloop
endfacet
facet normal 0.707107 0.707107 0
  outer loop
    vertex 1 0 32
    vertex 0 1 30
    vertex 0 1 32
  endloop
endfacet
facet normal 0.707107 0.707107 -0
  outer loop
    vertex 1 0 30
    vertex 0 1 30
    vertex 1 0 32
  endloop
endfacet
facet normal 0.707107 0.707107 0
  outer loop
    vertex 1 0 10
    vertex 1 0 8
    vertex 0 1 8
  endloop
endfacet
facet normal 0.707107 0.707107 0
  outer loop
    vertex 1 0 8
    vertex 1 0 6
    vertex 0 1 8
  endloop
endfacet
facet normal 0.707107 0.707107 -0
  outer loop
    vertex 0 1 4
    vertex 0 1 6
    vertex 1 0 4
  endloop
endfacet
facet normal 0.707107 0.707107 -0
  outer loop
    vertex 0 1 2
    vertex 0 1 4
    vertex 1 0 4
  endloop
endfacet
facet normal 0.707107 0.707107 0
  outer loop
    vertex 1 0 34
    vertex 0 1 32
    vertex 0 1 34
  endloop
endfacet
facet normal 0.707107 0.707107 -0
  outer loop
    vertex 1 0 32
    vertex 0 1 32
    vertex 1 0 34
  endloop
endfacet
facet normal 0.707107 0.707107 0
  outer loop
    vertex 0 1 18
    vertex 1 0 20
    vertex 1 0 18
  endloop
endfacet
facet normal 0.707107 0.707107 0
  outer loop
    vertex 1 0 4
    vertex 1 0 2
    vertex 0 1 2
  endloop
endfacet
facet normal 0.707107 0.707107 0
  outer loop
    vertex 1 0 38
    vertex 1 0 36
    vertex 0 1 36
  endloop
endfacet
facet normal 0.707107 0.707107 0
  outer loop
    vertex 0 1 38
    vertex 1 0 38
    vertex 0 1 36
  endloop
endfacet
facet normal 0.707107 0.707107 0
  outer loop
    vertex 0 1 10
    vertex 1 0 10
    vertex 0 1 8
  endloop
endfacet
facet normal 0.707107 0.707107 0
  outer loop
    vertex 1 0 6
    vertex 0 1 6
    vertex 0 1 8
  endloop
endfacet
facet normal 0.707107 0.707107 0
  outer loop
    vertex 1 0 6
    vertex 1 0 4
    vertex 0 1 6
  endloop
endfacet
facet normal 0.707107 0.707107 0
  outer loop
    vertex 1 0 36
    vertex 0 1 34
    vertex 0 1 36
  endloop
endfacet
facet normal 0.707107 0.707107 -0
  outer loop
    vertex 1 0 34
    vertex 0 1 34
    vertex 1 0 36
  endloop
endfacet
facet normal 0.707107 0.707107 0
  outer loop
    vertex 0 1 20
    vertex 1 0 20
    vertex 0 1 18
  endloop
endfacet
facet normal 0.707107 0.707107 0
  outer loop
    vertex 0 1 18
    vertex 1 0 16
    vertex 0 1 16
  endloop
endfacet
facet normal 0.707107 0.707107 0
  outer loop
    vertex 0 1 18
    vertex 1 0 18
    vertex 1 0 16
  endloop
endfacet
facet normal 0.707107 0.707107 0
  outer loop
    vertex 1 0 40
    vertex 1 0 38
    vertex 0 1 38
  endloop
endfacet
facet normal 0.707107 0.707107 0
  outer loop
    vertex 0 1 40
    vertex 1 0 40
    vertex 0 1 38
  endloop
endfacet
facet normal 0.707107 0.707107 0
  outer loop
    vertex 0 1 12
    vertex 1 0 10
    vertex 0 1 10
  endloop
endfacet
facet normal 0.707107 0.707107 0
  outer loop
    vertex 1 0 12
    vertex 1 0 10
    vertex 0 1 12
  endloop
endfacet
facet normal 0.707107 0.707107 0
  outer loop
    vertex 0 1 22
    vertex 1 0 20
    vertex 0 1 20
  endloop
endfacet
facet normal 0.707107 0.707107 0
  outer loop
    vertex 1 0 22
    vertex 1 0 20
    vertex 0 1 22
  endloop
endfacet
facet normal 0.707107 0.707107 0
  outer loop
    vertex 0 1 16
    vertex 1 0 14
    vertex 0 1 14
  endloop
endfacet
facet normal 0.707107 0.707107 0
  outer loop
    vertex 0 1 16
    vertex 1 0 16
    vertex 1 0 14
  endloop
endfacet
facet normal 0.707107 0.707107 0
  outer loop
    vertex 1 0 42
    vertex 1 0 40
    vertex 0 1 40
  endloop
endfacet
facet normal 0.707107 0.707107 0
  outer loop
    vertex 0 1 42
    vertex 1 0 42
    vertex 0 1 40
  endloop
endfacet
facet normal 0.707107 0.707107 0
  outer loop
    vertex 0 1 24
    vertex 1 0 26
    vertex 1 0 24
  endloop
endfacet
facet normal 0.707107 0.707107 0
  outer loop
    vertex 0 1 24
    vertex 1 0 22
    vertex 0 1 22
  endloop
endfacet
facet normal 0.707107 0.707107 0
  outer loop
    vertex 1 0 24
    vertex 1 0 22
    vertex 0 1 24
  endloop
endfacet
facet normal 0.707107 0.707107 0
  outer loop
    vertex 1 0 46
    vertex 1 0 44
    vertex 0 1 44
  endloop
endfacet
facet normal 0.707107 0.707107 0
  outer loop
    vertex 0 1 44
    vertex 1 0 42
    vertex 0 1 42
  endloop
endfacet
facet normal 0.707107 0.707107 0
  outer loop
    vertex 1 0 44
    vertex 1 0 42
    vertex 0 1 44
  endloop
endfacet
facet normal 0.707107 0.707107 0
  outer loop
    vertex 0 1 46
    vertex 1 0 46
    vertex 0 1 44
  endloop
endfacet
facet normal 0.707107 0.707107 0
  outer loop
    vertex 0 1 48
    vertex 1 0 46
    vertex 0 1 46
  endloop
endfacet
facet normal 0.707107 0.707107 0
  outer loop
    vertex 0 1 48
    vertex 1 0 48
    vertex 1 0 46
  endloop
endfacet
facet normal 0.707107 0.707107 0
  outer loop
    vertex 0 1 14
    vertex 1 0 12
    vertex 0 1 12
  endloop
endfacet
facet normal 0.707107 0.707107 0
  outer loop
    vertex 0 1 14
    vertex 1 0 14
    vertex 1 0 12
  endloop
endfacet
facet normal 0.92388 0.382683 -0
  outer loop
    vertex 1 0 48
    vertex 0.707107 0.707107 50
    vertex 1 0 50
  endloop
endfacet
facet normal 0.92388 0.382683 0
  outer loop
    vertex 0.707107 0.707107 0
    vertex 1 0 2
    vertex 1 0 0
  endloop
endfacet
facet normal 0.382683 0.92388 0
  outer loop
    vertex 0.707107 0.707107 50
    vertex 0 1 48
    vertex 0 1 50
  endloop
endfacet
facet normal 0.699644 0.699644 -0.144901
  outer loop
    vertex 1 0 48
    vertex 0 1 48
    vertex 0.707107 0.707107 50
  endloop
endfacet
facet normal 0.382683 0.92388 0
  outer loop
    vertex 0 1 2
    vertex 0.707107 0.707107 0
    vertex 0 1 0
  endloop
endfacet
facet normal 0.699644 0.699644 0.144901
  outer loop
    vertex 0 1 2
    vertex 1 0 2
    vertex 0.707107 0.707107 0
  endloop
endfacet
facet normal 0.707107 -0.707107 0
  outer loop
    vertex 1 0 30
    vertex 0 -1 28
    vertex 1 0 28
  endloop
endfacet
facet normal 0.707107 -0.707107 0
  outer loop
    vertex 1 0 26
    vertex 0 -1 28
    vertex 0 -1 26
  endloop
endfacet
facet normal 0.707107 -0.707107 0
  outer loop
    vertex 1 0 26
    vertex 1 0 28
    vertex 0 -1 28
  endloop
endfacet
facet normal 0.707107 -0.707107 0
  outer loop
    vertex 1 0 30
    vertex 0 -1 30
    vertex 0 -1 28
  endloop
endfacet
facet normal 0.707107 -0.707107 0
  outer loop
    vertex 1 0 34
    vertex 0 -1 32
    vertex 1 0 32
  endloop
endfacet
facet normal 0.707107 -0.707107 0
  outer loop
    vertex 1 0 30
    vertex 0 -1 32
    vertex 0 -1 30
  endloop
endfacet
facet normal 0.707107 -0.707107 0
  outer loop
    vertex 1 0 30
    vertex 1 0 32
    vertex 0 -1 32
  endloop
endfacet
facet normal 0.707107 -0.707107 0
  outer loop
    vertex 1 0 34
    vertex 0 -1 34
    vertex 0 -1 32
  endloop
endfacet
facet normal 0.707107 -0.707107 0
  outer loop
    vertex 0 -1 18
    vertex 1 0 18
    vertex 0 -1 20
  endloop
endfacet
facet normal 0.707107 -0.707107 0
  outer loop
    vertex 0 -1 6
    vertex 0 -1 4
    vertex 1 0 6
  endloop
endfacet
facet normal 0.707107 -0.707107 0
  outer loop
    vertex 1 0 36
    vertex 0 -1 38
    vertex 0 -1 36
  endloop
endfacet
facet normal 0.707107 -0.707107 0
  outer loop
    vertex 1 0 38
    vertex 0 -1 38
    vertex 1 0 36
  endloop
endfacet
facet normal 0.707107 -0.707107 0
  outer loop
    vertex 1 0 34
    vertex 0 -1 36
    vertex 0 -1 34
  endloop
endfacet
facet normal 0.707107 -0.707107 0
  outer loop
    vertex 1 0 34
    vertex 1 0 36
    vertex 0 -1 36
  endloop
endfacet
facet normal 0.707107 -0.707107 0
  outer loop
    vertex 0 -1 20
    vertex 1 0 18
    vertex 1 0 20
  endloop
endfacet
facet normal 0.707107 -0.707107 0
  outer loop
    vertex 0 -1 14
    vertex 1 0 16
    vertex 0 -1 16
  endloop
endfacet
facet normal 0.707107 -0.707107 0
  outer loop
    vertex 0 -1 14
    vertex 1 0 14
    vertex 1 0 16
  endloop
endfacet
facet normal 0.707107 -0.707107 0
  outer loop
    vertex 0 -1 16
    vertex 1 0 18
    vertex 0 -1 18
  endloop
endfacet
facet normal 0.707107 -0.707107 0
  outer loop
    vertex 1 0 16
    vertex 1 0 18
    vertex 0 -1 16
  endloop
endfacet
facet normal 0.707107 -0.707107 0
  outer loop
    vertex 1 0 38
    vertex 0 -1 40
    vertex 0 -1 38
  endloop
endfacet
facet normal 0.707107 -0.707107 0
  outer loop
    vertex 1 0 40
    vertex 0 -1 40
    vertex 1 0 38
  endloop
endfacet
facet normal 0.707107 -0.707107 0
  outer loop
    vertex 0 -1 8
    vertex 1 0 8
    vertex 0 -1 10
  endloop
endfacet
facet normal 0.707107 -0.707107 0
  outer loop
    vertex 0 -1 6
    vertex 1 0 8
    vertex 0 -1 8
  endloop
endfacet
facet normal 0.707107 -0.707107 0
  outer loop
    vertex 0 -1 6
    vertex 1 0 6
    vertex 1 0 8
  endloop
endfacet
facet normal 0.707107 -0.707107 0
  outer loop
    vertex 1 0 6
    vertex 0 -1 4
    vertex 1 0 4
  endloop
endfacet
facet normal 0.707107 -0.707107 0
  outer loop
    vertex 1 0 2
    vertex 0 -1 4
    vertex 0 -1 2
  endloop
endfacet
facet normal 0.707107 -0.707107 0
  outer loop
    vertex 1 0 2
    vertex 1 0 4
    vertex 0 -1 4
  endloop
endfacet
facet normal 0.707107 -0.707107 0
  outer loop
    vertex 1 0 10
    vertex 1 0 12
    vertex 0 -1 12
  endloop
endfacet
facet normal 0.707107 -0.707107 0
  outer loop
    vertex 0 -1 10
    vertex 1 0 10
    vertex 0 -1 12
  endloop
endfacet
facet normal 0.707107 -0.707107 0
  outer loop
    vertex 0 -1 10
    vertex 1 0 8
    vertex 1 0 10
  endloop
endfacet
facet normal 0.707107 -0.707107 0
  outer loop
    vertex 0 -1 20
    vertex 1 0 22
    vertex 0 -1 22
  endloop
endfacet
facet normal 0.707107 -0.707107 0
  outer loop
    vertex 0 -1 20
    vertex 1 0 20
    vertex 1 0 22
  endloop
endfacet
facet normal 0.707107 -0.707107 0
  outer loop
    vertex 1 0 40
    vertex 0 -1 42
    vertex 0 -1 40
  endloop
endfacet
facet normal 0.707107 -0.707107 0
  outer loop
    vertex 1 0 42
    vertex 0 -1 42
    vertex 1 0 40
  endloop
endfacet
facet normal 0.707107 -0.707107 0
  outer loop
    vertex 0 -1 22
    vertex 1 0 24
    vertex 0 -1 24
  endloop
endfacet
facet normal 0.707107 -0.707107 0
  outer loop
    vertex 0 -1 22
    vertex 1 0 22
    vertex 1 0 24
  endloop
endfacet
facet normal 0.707107 -0.707107 0
  outer loop
    vertex 1 0 42
    vertex 0 -1 44
    vertex 0 -1 42
  endloop
endfacet
facet normal 0.707107 -0.707107 0
  outer loop
    vertex 1 0 44
    vertex 0 -1 44
    vertex 1 0 42
  endloop
endfacet
facet normal 0.707107 -0.707107 0
  outer loop
    vertex 0 -1 24
    vertex 1 0 26
    vertex 0 -1 26
  endloop
endfacet
facet normal 0.707107 -0.707107 0
  outer loop
    vertex 1 0 24
    vertex 1 0 26
    vertex 0 -1 24
  endloop
endfacet
facet normal 0.707107 -0.707107 0
  outer loop
    vertex 1 0 44
    vertex 0 -1 46
    vertex 0 -1 44
  endloop
endfacet
facet normal 0.707107 -0.707107 0
  outer loop
    vertex 1 0 46
    vertex 0 -1 46
    vertex 1 0 44
  endloop
endfacet
facet normal 0.707107 -0.707107 0
  outer loop
    vertex 1 0 46
    vertex 0 -1 48
    vertex 0 -1 46
  endloop
endfacet
facet normal 0.707107 -0.707107 0
  outer loop
    vertex 1 0 48
    vertex 0 -1 48
    vertex 1 0 46
  endloop
endfacet
facet normal 0.707107 -0.707107 0
  outer loop
    vertex 0 -1 12
    vertex 1 0 14
    vertex 0 -1 14
  endloop
endfacet
facet normal 0.707107 -0.707107 0
  outer loop
    vertex 1 0 12
    vertex 1 0 14
    vertex 0 -1 12
  endloop
endfacet
facet normal 0.382683 -0.92388 0
  outer loop
    vertex 0 -1 48
    vertex 0.707107 -0.707107 50
    vertex 0 -1 50
  endloop
endfacet
facet normal 0.382683 -0.92388 0
  outer loop
    vertex 0.707107 -0.707107 0
    vertex 0 -1 2
    vertex 0 -1 0
  endloop
endfacet
facet normal 0.92388 -0.382683 0
  outer loop
    vertex 0.707107 -0.707107 50
    vertex 1 0 48
    vertex 1 0 50
  endloop
endfacet
facet normal 0.699644 -0.699644 -0.144901
  outer loop
    vertex 0 -1 48
    vertex 1 0 48
    vertex 0.707107 -0.707107 50
  endloop
endfacet
facet normal 0.92388 -0.382683 0
  outer loop
    vertex 1 0 2
    vertex 0.707107 -0.707107 0
    vertex 1 0 0
  endloop
endfacet
facet normal 0.699644 -0.699644 0.144901
  outer loop
    vertex 1 0 2
    vertex 0 -1 2
    vertex 0.707107 -0.707107 0
  endloop
endfacet
facet normal -0 0 1
  outer loop
    vertex -0.117163 0 50
    vertex -0.0489647 -0.0489647 50
    vertex -0.05003 0 50
  endloop
endfacet
facet normal 0 -0 1
  outer loop
    vertex 0 -0.117163 50
    vertex 0 -0.05003 50
    vertex -0.0489647 -0.0489647 50
  endloop
endfacet
facet normal 0 0 1
  outer loop
    vertex -0.117163 0 50
    vertex -0.0930051 -0.092532 50
    vertex -0.0489647 -0.0489647 50
  endloop
endfacet
facet normal 0 0 1
  outer loop
    vertex 0 -0.117163 50
    vertex -0.0489647 -0.0489647 50
    vertex -0.0930051 -0.092532 50
  endloop
endfacet
facet normal 0 0 1
  outer loop
    vertex 0 0 50
    vertex -0.05003 0 50
    vertex -0.0489647 -0.0489647 50
  endloop
endfacet
facet normal 0 0 1
  outer loop
    vertex 0 0 50
    vertex -0.0489647 -0.0489647 50
    vertex 0 -0.05003 50
  endloop
endfacet
facet normal 0 -0 1
  outer loop
    vertex 0 -0.707958 50
    vertex 0 -0.490316 50
    vertex -0.240538 -0.596299 50
  endloop
endfacet
facet normal -0 0 1
  outer loop
    vertex -0.707958 0 50
    vertex -0.587165 -0.237221 50
    vertex -0.490316 0 50
  endloop
endfacet
facet normal 0 0 1
  outer loop
    vertex -0.393502 -0.12371 50
    vertex -0.587165 -0.237221 50
    vertex -0.295094 -0.268298 50
  endloop
endfacet
facet normal -0 0 1
  outer loop
    vertex -0.328119 0 50
    vertex -0.267682 -0.104137 50
    vertex -0.207244 0 50
  endloop
endfacet
facet normal 0 -0 1
  outer loop
    vertex 0 -0.328119 50
    vertex 0 -0.207244 50
    vertex -0.104137 -0.267682 50
  endloop
endfacet
facet normal 0 0 1
  outer loop
    vertex -0.117163 0 50
    vertex -0.169634 -0.0713817 50
    vertex -0.0930051 -0.092532 50
  endloop
endfacet
facet normal 0 0 1
  outer loop
    vertex 0 -0.117163 50
    vertex -0.0930051 -0.092532 50
    vertex -0.0720441 -0.168972 50
  endloop
endfacet
facet normal 0 0 1
  outer loop
    vertex 0 -0.490316 50
    vertex -0.158111 -0.398922 50
    vertex -0.240538 -0.596299 50
  endloop
endfacet
facet normal 0 0 1
  outer loop
    vertex -0.490316 0 50
    vertex -0.587165 -0.237221 50
    vertex -0.393502 -0.12371 50
  endloop
endfacet
facet normal -0 0 1
  outer loop
    vertex -0.207244 0 50
    vertex -0.169634 -0.0713817 50
    vertex -0.117163 0 50
  endloop
endfacet
facet normal 0 -0 1
  outer loop
    vertex 0 -0.207244 50
    vertex 0 -0.117163 50
    vertex -0.0720441 -0.168972 50
  endloop
endfacet
facet normal 0 0 1
  outer loop
    vertex -0.104137 -0.267682 50
    vertex -0.295094 -0.268298 50
    vertex -0.158111 -0.398922 50
  endloop
endfacet
facet normal -0 0 1
  outer loop
    vertex -0.707107 -0.707107 50
    vertex -0.236911 -0.752841 50
    vertex -0.240538 -0.596299 50
  endloop
endfacet
facet normal 0 -0 1
  outer loop
    vertex -0.707107 -0.707107 50
    vertex -0.587165 -0.237221 50
    vertex -0.750557 -0.236082 50
  endloop
endfacet
facet normal 0 0 1
  outer loop
    vertex -0.409217 -0.409217 50
    vertex -0.158111 -0.398922 50
    vertex -0.295094 -0.268298 50
  endloop
endfacet
facet normal 0 0 1
  outer loop
    vertex -0.207244 0 50
    vertex -0.267682 -0.104137 50
    vertex -0.169634 -0.0713817 50
  endloop
endfacet
facet normal 0 0 1
  outer loop
    vertex 0 -0.207244 50
    vertex -0.0720441 -0.168972 50
    vertex -0.104137 -0.267682 50
  endloop
endfacet
facet normal 0 0 1
  outer loop
    vertex -0.163078 -0.160239 50
    vertex -0.295094 -0.268298 50
    vertex -0.104137 -0.267682 50
  endloop
endfacet
facet normal 0 -0 1
  outer loop
    vertex 0 -0.490316 50
    vertex 0 -0.328119 50
    vertex -0.158111 -0.398922 50
  endloop
endfacet
facet normal -0 0 1
  outer loop
    vertex -0.490316 0 50
    vertex -0.393502 -0.12371 50
    vertex -0.328119 0 50
  endloop
endfacet
facet normal 0 0 1
  outer loop
    vertex -0.707107 -0.707107 50
    vertex -0.240538 -0.596299 50
    vertex -0.409217 -0.409217 50
  endloop
endfacet
facet normal 0 0 1
  outer loop
    vertex -0.707107 -0.707107 50
    vertex -0.409217 -0.409217 50
    vertex -0.587165 -0.237221 50
  endloop
endfacet
facet normal 0 -0 1
  outer loop
    vertex -0.163078 -0.160239 50
    vertex -0.0930051 -0.092532 50
    vertex -0.169634 -0.0713817 50
  endloop
endfacet
facet normal -0 0 1
  outer loop
    vertex -0.163078 -0.160239 50
    vertex -0.0720441 -0.168972 50
    vertex -0.0930051 -0.092532 50
  endloop
endfacet
facet normal 0 0 1
  outer loop
    vertex -0.163078 -0.160239 50
    vertex -0.267682 -0.104137 50
    vertex -0.295094 -0.268298 50
  endloop
endfacet
facet normal 0 -0 1
  outer loop
    vertex 0 -1 50
    vertex 0 -0.707958 50
    vertex -0.236911 -0.752841 50
  endloop
endfacet
facet normal -0 0 1
  outer loop
    vertex -1 0 50
    vertex -0.750557 -0.236082 50
    vertex -0.707958 0 50
  endloop
endfacet
facet normal -0 0 1
  outer loop
    vertex -0.409217 -0.409217 50
    vertex -0.240538 -0.596299 50
    vertex -0.158111 -0.398922 50
  endloop
endfacet
facet normal 0 0 1
  outer loop
    vertex -0.267682 -0.104137 50
    vertex -0.393502 -0.12371 50
    vertex -0.295094 -0.268298 50
  endloop
endfacet
facet normal 0 0 1
  outer loop
    vertex -0.587165 -0.237221 50
    vertex -0.409217 -0.409217 50
    vertex -0.295094 -0.268298 50
  endloop
endfacet
facet normal 0 0 1
  outer loop
    vertex 0 -0.328119 50
    vertex -0.104137 -0.267682 50
    vertex -0.158111 -0.398922 50
  endloop
endfacet
facet normal 0 0 1
  outer loop
    vertex -0.328119 0 50
    vertex -0.393502 -0.12371 50
    vertex -0.267682 -0.104137 50
  endloop
endfacet
facet normal 0 0 1
  outer loop
    vertex -0.163078 -0.160239 50
    vertex -0.169634 -0.0713817 50
    vertex -0.267682 -0.104137 50
  endloop
endfacet
facet normal 0 0 1
  outer loop
    vertex -0.163078 -0.160239 50
    vertex -0.104137 -0.267682 50
    vertex -0.0720441 -0.168972 50
  endloop
endfacet
facet normal 0 0 1
  outer loop
    vertex 0 -0.707958 50
    vertex -0.240538 -0.596299 50
    vertex -0.236911 -0.752841 50
  endloop
endfacet
facet normal 0 0 1
  outer loop
    vertex -0.707958 0 50
    vertex -0.750557 -0.236082 50
    vertex -0.587165 -0.237221 50
  endloop
endfacet
facet normal 0 0 1
  outer loop
    vertex -1 0 50
    vertex -0.707107 -0.707107 50
    vertex -0.750557 -0.236082 50
  endloop
endfacet
facet normal 0 0 1
  outer loop
    vertex 0 -1 50
    vertex -0.236911 -0.752841 50
    vertex -0.707107 -0.707107 50
  endloop
endfacet
facet normal 0 0 -1
  outer loop
    vertex 0 -0.117163 50
    vertex 0 -0.05003 50
    vertex 0.0489647 -0.0489647 50
  endloop
endfacet
facet normal -0 0 -1
  outer loop
    vertex 0.117163 0 50
    vertex 0.0489647 -0.0489647 50
    vertex 0.05003 0 50
  endloop
endfacet
facet normal 0 0 -1
  outer loop
    vertex 0 -0.117163 50
    vertex 0.0489647 -0.0489647 50
    vertex 0.0930051 -0.092532 50
  endloop
endfacet
facet normal 0 0 -1
  outer loop
    vertex 0.117163 0 50
    vertex 0.0930051 -0.092532 50
    vertex 0.0489647 -0.0489647 50
  endloop
endfacet
facet normal 0 0 -1
  outer loop
    vertex 0 0 50
    vertex 0.0489647 -0.0489647 50
    vertex 0 -0.05003 50
  endloop
endfacet
facet normal 0 0 -1
  outer loop
    vertex 0 0 50
    vertex 0.05003 0 50
    vertex 0.0489647 -0.0489647 50
  endloop
endfacet
facet normal -0 0 -1
  outer loop
    vertex 0.707958 0 50
    vertex 0.587165 -0.237221 50
    vertex 0.490316 0 50
  endloop
endfacet
facet normal 0 0 -1
  outer loop
    vertex 0 -0.707958 50
    vertex 0 -0.490316 50
    vertex 0.240538 -0.596299 50
  endloop
endfacet
facet normal 0 -0 -1
  outer loop
    vertex 0.393502 -0.12371 50
    vertex 0.587165 -0.237221 50
    vertex 0.295094 -0.268298 50
  endloop
endfacet
facet normal 0 0 -1
  outer loop
    vertex 0 -0.328119 50
    vertex 0 -0.207244 50
    vertex 0.104137 -0.267682 50
  endloop
endfacet
facet normal -0 0 -1
  outer loop
    vertex 0.328119 0 50
    vertex 0.267682 -0.104137 50
    vertex 0.207244 0 50
  endloop
endfacet
facet normal 0 0 -1
  outer loop
    vertex 0 -0.117163 50
    vertex 0.0930051 -0.092532 50
    vertex 0.0720441 -0.168972 50
  endloop
endfacet
facet normal 0 -0 -1
  outer loop
    vertex 0.117163 0 50
    vertex 0.169634 -0.0713817 50
    vertex 0.0930051 -0.092532 50
  endloop
endfacet
facet normal 0 -0 -1
  outer loop
    vertex 0.490316 0 50
    vertex 0.587165 -0.237221 50
    vertex 0.393502 -0.12371 50
  endloop
endfacet
facet normal 0 0 -1
  outer loop
    vertex 0 -0.490316 50
    vertex 0.158111 -0.398922 50
    vertex 0.240538 -0.596299 50
  endloop
endfacet
facet normal 0 0 -1
  outer loop
    vertex 0 -0.207244 50
    vertex 0 -0.117163 50
    vertex 0.0720441 -0.168972 50
  endloop
endfacet
facet normal -0 0 -1
  outer loop
    vertex 0.207244 0 50
    vertex 0.169634 -0.0713817 50
    vertex 0.117163 0 50
  endloop
endfacet
facet normal 0 0 -1
  outer loop
    vertex 0.104137 -0.267682 50
    vertex 0.295094 -0.268298 50
    vertex 0.158111 -0.398922 50
  endloop
endfacet
facet normal 0 0 -1
  outer loop
    vertex 0.707107 -0.707107 50
    vertex 0.587165 -0.237221 50
    vertex 0.750557 -0.236082 50
  endloop
endfacet
facet normal -0 0 -1
  outer loop
    vertex 0.707107 -0.707107 50
    vertex 0.236911 -0.752841 50
    vertex 0.240538 -0.596299 50
  endloop
endfacet
facet normal 0 0 -1
  outer loop
    vertex 0.409217 -0.409217 50
    vertex 0.158111 -0.398922 50
    vertex 0.295094 -0.268298 50
  endloop
endfacet
facet normal 0 0 -1
  outer loop
    vertex 0 -0.207244 50
    vertex 0.0720441 -0.168972 50
    vertex 0.104137 -0.267682 50
  endloop
endfacet
facet normal 0 -0 -1
  outer loop
    vertex 0.207244 0 50
    vertex 0.267682 -0.104137 50
    vertex 0.169634 -0.0713817 50
  endloop
endfacet
facet normal 0 -0 -1
  outer loop
    vertex 0.163078 -0.160239 50
    vertex 0.295094 -0.268298 50
    vertex 0.104137 -0.267682 50
  endloop
endfacet
facet normal -0 0 -1
  outer loop
    vertex 0.490316 0 50
    vertex 0.393502 -0.12371 50
    vertex 0.328119 0 50
  endloop
endfacet
facet normal 0 0 -1
  outer loop
    vertex 0 -0.490316 50
    vertex 0 -0.328119 50
    vertex 0.158111 -0.398922 50
  endloop
endfacet
facet normal 0 0 -1
  outer loop
    vertex 0.707107 -0.707107 50
    vertex 0.409217 -0.409217 50
    vertex 0.587165 -0.237221 50
  endloop
endfacet
facet normal 0 0 -1
  outer loop
    vertex 0.707107 -0.707107 50
    vertex 0.240538 -0.596299 50
    vertex 0.409217 -0.409217 50
  endloop
endfacet
facet normal -0 0 -1
  outer loop
    vertex 0.163078 -0.160239 50
    vertex 0.0720441 -0.168972 50
    vertex 0.0930051 -0.092532 50
  endloop
endfacet
facet normal 0 0 -1
  outer loop
    vertex 0.163078 -0.160239 50
    vertex 0.0930051 -0.092532 50
    vertex 0.169634 -0.0713817 50
  endloop
endfacet
facet normal 0 0 -1
  outer loop
    vertex 0.163078 -0.160239 50
    vertex 0.267682 -0.104137 50
    vertex 0.295094 -0.268298 50
  endloop
endfacet
facet normal -0 0 -1
  outer loop
    vertex 1 0 50
    vertex 0.750557 -0.236082 50
    vertex 0.707958 0 50
  endloop
endfacet
facet normal 0 0 -1
  outer loop
    vertex 0 -1 50
    vertex 0 -0.707958 50
    vertex 0.236911 -0.752841 50
  endloop
endfacet
facet normal -0 0 -1
  outer loop
    vertex 0.409217 -0.409217 50
    vertex 0.240538 -0.596299 50
    vertex 0.158111 -0.398922 50
  endloop
endfacet
facet normal 0 0 -1
  outer loop
    vertex 0.267682 -0.104137 50
    vertex 0.393502 -0.12371 50
    vertex 0.295094 -0.268298 50
  endloop
endfacet
facet normal 0 0 -1
  outer loop
    vertex 0.587165 -0.237221 50
    vertex 0.409217 -0.409217 50
    vertex 0.295094 -0.268298 50
  endloop
endfacet
facet normal 0 -0 -1
  outer loop
    vertex 0.328119 0 50
    vertex 0.393502 -0.12371 50
    vertex 0.267682 -0.104137 50
  endloop
endfacet
facet normal 0 0 -1
  outer loop
    vertex 0 -0.328119 50
    vertex 0.104137 -0.267682 50
    vertex 0.158111 -0.398922 50
  endloop
endfacet
facet normal 0 0 -1
  outer loop
    vertex 0.163078 -0.160239 50
    vertex 0.104137 -0.267682 50
    vertex 0.0720441 -0.168972 50
  endloop
endfacet
facet normal 0 0 -1
  outer loop
    vertex 0.163078 -0.160239 50
    vertex 0.169634 -0.0713817 50
    vertex 0.267682 -0.104137 50
  endloop
endfacet
facet normal 0 -0 -1
  outer loop
    vertex 0.707958 0 50
    vertex 0.750557 -0.236082 50
    vertex 0.587165 -0.237221 50
  endloop
endfacet
facet normal 0 0 -1
  outer loop
    vertex 0 -0.707958 50
    vertex 0.240538 -0.596299 50
    vertex 0.236911 -0.752841 50
  endloop
endfacet
facet normal 0 0 -1
  outer loop
    vertex 0 -1 50
    vertex 0.236911 -0.752841 50
    vertex 0.707107 -0.707107 50
  endloop
endfacet
facet normal 0 0 -1
  outer loop
    vertex 1 0 50
    vertex 0.707107 -0.707107 50
    vertex 0.750557 -0.236082 50
  endloop
endfacet
facet normal 0 0 -1
  outer loop
    vertex 0.117163 0 50
    vertex 0.05003 0 50
    vertex 0.0489647 0.0489647 50
  endloop
endfacet
facet normal 0 0 -1
  outer loop
    vertex 0 0.117163 50
    vertex 0.0489647 0.0489647 50
    vertex 0 0.05003 50
  endloop
endfacet
facet normal 0 0 -1
  outer loop
    vertex 0.117163 0 50
    vertex 0.0489647 0.0489647 50
    vertex 0.0930051 0.092532 50
  endloop
endfacet
facet normal 0 0 -1
  outer loop
    vertex 0 0.117163 50
    vertex 0.0930051 0.092532 50
    vertex 0.0489647 0.0489647 50
  endloop
endfacet
facet normal 0 0 -1
  outer loop
    vertex 0 0 50
    vertex 0.0489647 0.0489647 50
    vertex 0.05003 0 50
  endloop
endfacet
facet normal 0 0 -1
  outer loop
    vertex 0 0 50
    vertex 0 0.05003 50
    vertex 0.0489647 0.0489647 50
  endloop
endfacet
facet normal 0 0 -1
  outer loop
    vertex 0 0.707958 50
    vertex 0.240538 0.596299 50
    vertex 0 0.490316 50
  endloop
endfacet
facet normal 0 0 -1
  outer loop
    vertex 0.707958 0 50
    vertex 0.490316 0 50
    vertex 0.587165 0.237221 50
  endloop
endfacet
facet normal 0 0 -1
  outer loop
    vertex 0.393502 0.12371 50
    vertex 0.295094 0.268298 50
    vertex 0.587165 0.237221 50
  endloop
endfacet
facet normal 0 0 -1
  outer loop
    vertex 0.328119 0 50
    vertex 0.207244 0 50
    vertex 0.267682 0.104137 50
  endloop
endfacet
facet normal 0 0 -1
  outer loop
    vertex 0 0.328119 50
    vertex 0.104137 0.267682 50
    vertex 0 0.207244 50
  endloop
endfacet
facet normal 0 0 -1
  outer loop
    vertex 0.117163 0 50
    vertex 0.0930051 0.092532 50
    vertex 0.169634 0.0713817 50
  endloop
endfacet
facet normal 0 0 -1
  outer loop
    vertex 0 0.117163 50
    vertex 0.0720441 0.168972 50
    vertex 0.0930051 0.092532 50
  endloop
endfacet
facet normal 0 0 -1
  outer loop
    vertex 0 0.490316 50
    vertex 0.240538 0.596299 50
    vertex 0.158111 0.398922 50
  endloop
endfacet
facet normal 0 0 -1
  outer loop
    vertex 0.490316 0 50
    vertex 0.393502 0.12371 50
    vertex 0.587165 0.237221 50
  endloop
endfacet
facet normal 0 0 -1
  outer loop
    vertex 0.207244 0 50
    vertex 0.117163 0 50
    vertex 0.169634 0.0713817 50
  endloop
endfacet
facet normal 0 0 -1
  outer loop
    vertex 0 0.207244 50
    vertex 0.0720441 0.168972 50
    vertex 0 0.117163 50
  endloop
endfacet
facet normal 0 0 -1
  outer loop
    vertex 0.104137 0.267682 50
    vertex 0.158111 0.398922 50
    vertex 0.295094 0.268298 50
  endloop
endfacet
facet normal -0 0 -1
  outer loop
    vertex 0.707107 0.707107 50
    vertex 0.240538 0.596299 50
    vertex 0.236911 0.752841 50
  endloop
endfacet
facet normal 0 -0 -1
  outer loop
    vertex 0.707107 0.707107 50
    vertex 0.750557 0.236082 50
    vertex 0.587165 0.237221 50
  endloop
endfacet
facet normal 0 0 -1
  outer loop
    vertex 0.409217 0.409217 50
    vertex 0.295094 0.268298 50
    vertex 0.158111 0.398922 50
  endloop
endfacet
facet normal 0 0 -1
  outer loop
    vertex 0.207244 0 50
    vertex 0.169634 0.0713817 50
    vertex 0.267682 0.104137 50
  endloop
endfacet
facet normal 0 0 -1
  outer loop
    vertex 0 0.207244 50
    vertex 0.104137 0.267682 50
    vertex 0.0720441 0.168972 50
  endloop
endfacet
facet normal 0 0 -1
  outer loop
    vertex 0.163078 0.160239 50
    vertex 0.104137 0.267682 50
    vertex 0.295094 0.268298 50
  endloop
endfacet
facet normal 0 0 -1
  outer loop
    vertex 0 0.490316 50
    vertex 0.158111 0.398922 50
    vertex 0 0.328119 50
  endloop
endfacet
facet normal 0 0 -1
  outer loop
    vertex 0.490316 0 50
    vertex 0.328119 0 50
    vertex 0.393502 0.12371 50
  endloop
endfacet
facet normal 0 0 -1
  outer loop
    vertex 0.707107 0.707107 50
    vertex 0.409217 0.409217 50
    vertex 0.240538 0.596299 50
  endloop
endfacet
facet normal 0 0 -1
  outer loop
    vertex 0.707107 0.707107 50
    vertex 0.587165 0.237221 50
    vertex 0.409217 0.409217 50
  endloop
endfacet
facet normal 0 -0 -1
  outer loop
    vertex 0.163078 0.160239 50
    vertex 0.169634 0.0713817 50
    vertex 0.0930051 0.092532 50
  endloop
endfacet
facet normal -0 0 -1
  outer loop
    vertex 0.163078 0.160239 50
    vertex 0.0930051 0.092532 50
    vertex 0.0720441 0.168972 50
  endloop
endfacet
facet normal 0 0 -1
  outer loop
    vertex 0.163078 0.160239 50
    vertex 0.295094 0.268298 50
    vertex 0.267682 0.104137 50
  endloop
endfacet
facet normal 0 0 -1
  outer loop
    vertex 0 1 50
    vertex 0.236911 0.752841 50
    vertex 0 0.707958 50
  endloop
endfacet
facet normal 0 0 -1
  outer loop
    vertex 1 0 50
    vertex 0.707958 0 50
    vertex 0.750557 0.236082 50
  endloop
endfacet
facet normal -0 0 -1
  outer loop
    vertex 0.409217 0.409217 50
    vertex 0.158111 0.398922 50
    vertex 0.240538 0.596299 50
  endloop
endfacet
facet normal 0 0 -1
  outer loop
    vertex 0.267682 0.104137 50
    vertex 0.295094 0.268298 50
    vertex 0.393502 0.12371 50
  endloop
endfacet
facet normal 0 0 -1
  outer loop
    vertex 0.587165 0.237221 50
    vertex 0.295094 0.268298 50
    vertex 0.409217 0.409217 50
  endloop
endfacet
facet normal 0 0 -1
  outer loop
    vertex 0 0.328119 50
    vertex 0.158111 0.398922 50
    vertex 0.104137 0.267682 50
  endloop
endfacet
facet normal 0 0 -1
  outer loop
    vertex 0.328119 0 50
    vertex 0.267682 0.104137 50
    vertex 0.393502 0.12371 50
  endloop
endfacet
facet normal 0 0 -1
  outer loop
    vertex 0.163078 0.160239 50
    vertex 0.267682 0.104137 50
    vertex 0.169634 0.0713817 50
  endloop
endfacet
facet normal 0 0 -1
  outer loop
    vertex 0.163078 0.160239 50
    vertex 0.0720441 0.168972 50
    vertex 0.104137 0.267682 50
  endloop
endfacet
facet normal 0 0 -1
  outer loop
    vertex 0 0.707958 50
    vertex 0.236911 0.752841 50
    vertex 0.240538 0.596299 50
  endloop
endfacet
facet normal 0 0 -1
  outer loop
    vertex 0.707958 0 50
    vertex 0.587165 0.237221 50
    vertex 0.750557 0.236082 50
  endloop
endfacet
facet normal 0 0 -1
  outer loop
    vertex 0 1 50
    vertex 0.707107 0.707107 50
    vertex 0.236911 0.752841 50
  endloop
endfacet
facet normal 0 0 -1
  outer loop
    vertex 1 0 50
    vertex 0.750557 0.236082 50
    vertex 0.707107 0.707107 50
  endloop
endfacet
facet normal 0 0 -1
  outer loop
    vertex -0.117163 0 50
    vertex -0.0489647 0.0489647 50
    vertex -0.05003 0 50
  endloop
endfacet
facet normal 0 -0 -1
  outer loop
    vertex 0 0.117163 50
    vertex 0 0.05003 50
    vertex -0.0489647 0.0489647 50
  endloop
endfacet
facet normal 0 0 -1
  outer loop
    vertex -0.117163 0 50
    vertex -0.092532 0.0930051 50
    vertex -0.0489647 0.0489647 50
  endloop
endfacet
facet normal 0 0 -1
  outer loop
    vertex 0 0.117163 50
    vertex -0.0489647 0.0489647 50
    vertex -0.092532 0.0930051 50
  endloop
endfacet
facet normal 0 0 -1
  outer loop
    vertex 0 0 50
    vertex -0.05003 0 50
    vertex -0.0489647 0.0489647 50
  endloop
endfacet
facet normal 0 0 -1
  outer loop
    vertex 0 0 50
    vertex -0.0489647 0.0489647 50
    vertex 0 0.05003 50
  endloop
endfacet
facet normal 0 0 -1
  outer loop
    vertex -0.707958 0 50
    vertex -0.596299 0.240538 50
    vertex -0.490316 0 50
  endloop
endfacet
facet normal 0 -0 -1
  outer loop
    vertex 0 0.707958 50
    vertex 0 0.490316 50
    vertex -0.237221 0.587165 50
  endloop
endfacet
facet normal -0 0 -1
  outer loop
    vertex -0.12371 0.393502 50
    vertex -0.268298 0.295094 50
    vertex -0.237221 0.587165 50
  endloop
endfacet
facet normal 0 0 -1
  outer loop
    vertex -0.328119 0 50
    vertex -0.267682 0.104137 50
    vertex -0.207244 0 50
  endloop
endfacet
facet normal 0 -0 -1
  outer loop
    vertex 0 0.328119 50
    vertex 0 0.207244 50
    vertex -0.104137 0.267682 50
  endloop
endfacet
facet normal 0 0 -1
  outer loop
    vertex -0.117163 0 50
    vertex -0.168972 0.0720441 50
    vertex -0.092532 0.0930051 50
  endloop
endfacet
facet normal -0 0 -1
  outer loop
    vertex 0 0.117163 50
    vertex -0.092532 0.0930051 50
    vertex -0.0713817 0.169634 50
  endloop
endfacet
facet normal 0 0 -1
  outer loop
    vertex -0.490316 0 50
    vertex -0.596299 0.240538 50
    vertex -0.398922 0.158111 50
  endloop
endfacet
facet normal -0 0 -1
  outer loop
    vertex 0 0.490316 50
    vertex -0.12371 0.393502 50
    vertex -0.237221 0.587165 50
  endloop
endfacet
facet normal 0 0 -1
  outer loop
    vertex -0.207244 0 50
    vertex -0.168972 0.0720441 50
    vertex -0.117163 0 50
  endloop
endfacet
facet normal 0 -0 -1
  outer loop
    vertex 0 0.207244 50
    vertex 0 0.117163 50
    vertex -0.0713817 0.169634 50
  endloop
endfacet
facet normal 0 0 -1
  outer loop
    vertex -0.267682 0.104137 50
    vertex -0.398922 0.158111 50
    vertex -0.268298 0.295094 50
  endloop
endfacet
facet normal 0 -0 -1
  outer loop
    vertex -0.707107 0.707107 50
    vertex -0.596299 0.240538 50
    vertex -0.752841 0.236911 50
  endloop
endfacet
facet normal 0 0 -1
  outer loop
    vertex -0.707107 0.707107 50
    vertex -0.236082 0.750557 50
    vertex -0.237221 0.587165 50
  endloop
endfacet
facet normal 0 0 -1
  outer loop
    vertex -0.409217 0.409217 50
    vertex -0.268298 0.295094 50
    vertex -0.398922 0.158111 50
  endloop
endfacet
facet normal 0 0 -1
  outer loop
    vertex -0.207244 0 50
    vertex -0.267682 0.104137 50
    vertex -0.168972 0.0720441 50
  endloop
endfacet
facet normal -0 0 -1
  outer loop
    vertex 0 0.207244 50
    vertex -0.0713817 0.169634 50
    vertex -0.104137 0.267682 50
  endloop
endfacet
facet normal -0 0 -1
  outer loop
    vertex -0.160239 0.163078 50
    vertex -0.267682 0.104137 50
    vertex -0.268298 0.295094 50
  endloop
endfacet
facet normal 0 0 -1
  outer loop
    vertex -0.490316 0 50
    vertex -0.398922 0.158111 50
    vertex -0.328119 0 50
  endloop
endfacet
facet normal 0 -0 -1
  outer loop
    vertex 0 0.490316 50
    vertex 0 0.328119 50
    vertex -0.12371 0.393502 50
  endloop
endfacet
facet normal 0 0 -1
  outer loop
    vertex -0.707107 0.707107 50
    vertex -0.409217 0.409217 50
    vertex -0.596299 0.240538 50
  endloop
endfacet
facet normal 0 0 -1
  outer loop
    vertex -0.707107 0.707107 50
    vertex -0.237221 0.587165 50
    vertex -0.409217 0.409217 50
  endloop
endfacet
facet normal 0 -0 -1
  outer loop
    vertex -0.160239 0.163078 50
    vertex -0.092532 0.0930051 50
    vertex -0.168972 0.0720441 50
  endloop
endfacet
facet normal 0 0 -1
  outer loop
    vertex -0.160239 0.163078 50
    vertex -0.0713817 0.169634 50
    vertex -0.092532 0.0930051 50
  endloop
endfacet
facet normal 0 0 -1
  outer loop
    vertex -0.160239 0.163078 50
    vertex -0.268298 0.295094 50
    vertex -0.104137 0.267682 50
  endloop
endfacet
facet normal 0 0 -1
  outer loop
    vertex -1 0 50
    vertex -0.752841 0.236911 50
    vertex -0.707958 0 50
  endloop
endfacet
facet normal 0 -0 -1
  outer loop
    vertex 0 1 50
    vertex 0 0.707958 50
    vertex -0.236082 0.750557 50
  endloop
endfacet
facet normal 0 -0 -1
  outer loop
    vertex -0.409217 0.409217 50
    vertex -0.398922 0.158111 50
    vertex -0.596299 0.240538 50
  endloop
endfacet
facet normal 0 0 -1
  outer loop
    vertex -0.104137 0.267682 50
    vertex -0.268298 0.295094 50
    vertex -0.12371 0.393502 50
  endloop
endfacet
facet normal 0 0 -1
  outer loop
    vertex -0.237221 0.587165 50
    vertex -0.268298 0.295094 50
    vertex -0.409217 0.409217 50
  endloop
endfacet
facet normal 0 0 -1
  outer loop
    vertex -0.328119 0 50
    vertex -0.398922 0.158111 50
    vertex -0.267682 0.104137 50
  endloop
endfacet
facet normal -0 0 -1
  outer loop
    vertex 0 0.328119 50
    vertex -0.104137 0.267682 50
    vertex -0.12371 0.393502 50
  endloop
endfacet
facet normal 0 0 -1
  outer loop
    vertex -0.160239 0.163078 50
    vertex -0.168972 0.0720441 50
    vertex -0.267682 0.104137 50
  endloop
endfacet
facet normal 0 0 -1
  outer loop
    vertex -0.160239 0.163078 50
    vertex -0.104137 0.267682 50
    vertex -0.0713817 0.169634 50
  endloop
endfacet
facet normal 0 0 -1
  outer loop
    vertex -0.707958 0 50
    vertex -0.752841 0.236911 50
    vertex -0.596299 0.240538 50
  endloop
endfacet
facet normal -0 0 -1
  outer loop
    vertex 0 0.707958 50
    vertex -0.237221 0.587165 50
    vertex -0.236082 0.750557 50
  endloop
endfacet
facet normal 0 0 -1
  outer loop
    vertex -1 0 50
    vertex -0.707107 0.707107 50
    vertex -0.752841 0.236911 50
  endloop
endfacet
facet normal 0 0 -1
  outer loop
    vertex 0 1 50
    vertex -0.236082 0.750557 50
    vertex -0.707107 0.707107 50
  endloop
endfacet
facet normal 0 0 -1
  outer loop
    vertex -0.707107 -0.707107 0
    vertex -1 0 0
    vertex 0 0 0
  endloop
endfacet
facet normal 0 0 -1
  outer loop
    vertex 0 -1 0
    vertex -0.707107 -0.707107 0
    vertex 0 0 0
  endloop
endfacet
facet normal 0 0 -1
  outer loop
    vertex 0 -1 0
    vertex 0 0 0
    vertex 0.707107 -0.707107 0
  endloop
endfacet
facet normal 0 0 -1
  outer loop
    vertex 0.707107 -0.707107 0
    vertex 0 0 0
    vertex 1 0 0
  endloop
endfacet
facet normal 0 0 -1
  outer loop
    vertex 0 0 0
    vertex 0.707107 0.707107 0
    vertex 1 0 0
  endloop
endfacet
facet normal 0 0 -1
  outer loop
    vertex 0 0 0
    vertex 0 1 0
    vertex 0.707107 0.707107 0
  endloop
endfacet
facet normal 0 0 -1
  outer loop
    vertex 0 0 0
    vertex -0.707107 0.707107 0
    vertex 0 1 0
  endloop
endfacet
facet normal 0 0 -1
  outer loop
    vertex 0 0 0
    vertex -1 0 0
    vertex -0.707107 0.707107 0
  endloop
endfacet
endsolid Created by Gmsh
